<mxfile modified="2022-11-30T22:36:19.268Z" host="app.diagrams.net" agent="5.0 (Macintosh; Intel Mac OS X 10_15_7) AppleWebKit/605.1.15 (KHTML, like Gecko) Version/16.1 Safari/605.1.15" etag="cr48ThmUIGYKLIfT7Ifq" version="20.5.3" type="github" pages="12">
  <diagram id="VjomX15xuYtD5MLgN6QB" name="Agenda">
    <mxGraphModel dx="1186" dy="795" grid="1" gridSize="10" guides="1" tooltips="1" connect="1" arrows="1" fold="1" page="1" pageScale="1" pageWidth="850" pageHeight="1100" math="0" shadow="0">
      <root>
        <mxCell id="0" />
        <mxCell id="1" parent="0" />
        <mxCell id="RGwa3ZNCP71L5T_SxQl2-1" value="Agenda" style="text;html=1;strokeColor=none;fillColor=none;align=center;verticalAlign=middle;whiteSpace=wrap;rounded=0;shadow=0;fontSize=18;fontStyle=1" parent="1" vertex="1">
          <mxGeometry x="160" y="120" width="60" height="30" as="geometry" />
        </mxCell>
        <mxCell id="RGwa3ZNCP71L5T_SxQl2-2" value="Meeting Kick-off" style="text;html=1;strokeColor=none;fillColor=none;align=left;verticalAlign=middle;whiteSpace=wrap;rounded=0;shadow=0;fontSize=18;" parent="1" vertex="1">
          <mxGeometry x="160" y="210" width="480" height="30" as="geometry" />
        </mxCell>
        <mxCell id="RGwa3ZNCP71L5T_SxQl2-6" value="Requirements &amp;amp; High-Level Architecture" style="text;html=1;strokeColor=none;fillColor=none;align=left;verticalAlign=middle;whiteSpace=wrap;rounded=0;shadow=0;fontSize=18;" parent="1" vertex="1">
          <mxGeometry x="160" y="280" width="480" height="30" as="geometry" />
        </mxCell>
        <mxCell id="RGwa3ZNCP71L5T_SxQl2-7" value="Solutions Architecture / Future State" style="text;html=1;strokeColor=none;fillColor=none;align=left;verticalAlign=middle;whiteSpace=wrap;rounded=0;shadow=0;fontSize=18;" parent="1" vertex="1">
          <mxGeometry x="160" y="510" width="480" height="30" as="geometry" />
        </mxCell>
        <mxCell id="RGwa3ZNCP71L5T_SxQl2-8" value="Summary &amp;amp; Next Steps" style="text;html=1;strokeColor=none;fillColor=none;align=left;verticalAlign=middle;whiteSpace=wrap;rounded=0;shadow=0;fontSize=18;" parent="1" vertex="1">
          <mxGeometry x="160" y="707" width="480" height="30" as="geometry" />
        </mxCell>
        <mxCell id="RGwa3ZNCP71L5T_SxQl2-9" value="Conceptual architecture" style="text;html=1;strokeColor=none;fillColor=none;align=left;verticalAlign=middle;whiteSpace=wrap;rounded=0;shadow=0;fontSize=18;" parent="1" vertex="1">
          <mxGeometry x="200" y="560" width="480" height="30" as="geometry" />
        </mxCell>
        <mxCell id="RGwa3ZNCP71L5T_SxQl2-10" value="Conceptual architecture with services overlay" style="text;html=1;strokeColor=none;fillColor=none;align=left;verticalAlign=middle;whiteSpace=wrap;rounded=0;shadow=0;fontSize=18;" parent="1" vertex="1">
          <mxGeometry x="200" y="600" width="480" height="30" as="geometry" />
        </mxCell>
        <mxCell id="RGwa3ZNCP71L5T_SxQl2-11" value="High-level requirements" style="text;html=1;strokeColor=none;fillColor=none;align=left;verticalAlign=middle;whiteSpace=wrap;rounded=0;shadow=0;fontSize=18;" parent="1" vertex="1">
          <mxGeometry x="200" y="320" width="480" height="30" as="geometry" />
        </mxCell>
        <mxCell id="RGwa3ZNCP71L5T_SxQl2-12" value="Current &amp;amp; future high-level system state" style="text;html=1;strokeColor=none;fillColor=none;align=left;verticalAlign=middle;whiteSpace=wrap;rounded=0;shadow=0;fontSize=18;" parent="1" vertex="1">
          <mxGeometry x="200" y="360" width="480" height="30" as="geometry" />
        </mxCell>
        <mxCell id="RGwa3ZNCP71L5T_SxQl2-13" value="What does success look like?" style="text;html=1;strokeColor=none;fillColor=none;align=left;verticalAlign=middle;whiteSpace=wrap;rounded=0;shadow=0;fontSize=18;" parent="1" vertex="1">
          <mxGeometry x="200" y="400" width="480" height="30" as="geometry" />
        </mxCell>
        <mxCell id="RGwa3ZNCP71L5T_SxQl2-14" value="&lt;span style=&quot;white-space: pre;&quot;&gt; &lt;/span&gt;Functional &amp;amp; Non-Functional Requirements" style="text;html=1;strokeColor=none;fillColor=none;align=left;verticalAlign=middle;whiteSpace=wrap;rounded=0;shadow=0;fontSize=18;" parent="1" vertex="1">
          <mxGeometry x="240" y="440" width="480" height="30" as="geometry" />
        </mxCell>
        <mxCell id="RGwa3ZNCP71L5T_SxQl2-15" value="Cloud solutions architecture&amp;nbsp;" style="text;html=1;strokeColor=none;fillColor=none;align=left;verticalAlign=middle;whiteSpace=wrap;rounded=0;shadow=0;fontSize=18;" parent="1" vertex="1">
          <mxGeometry x="200" y="640" width="480" height="30" as="geometry" />
        </mxCell>
      </root>
    </mxGraphModel>
  </diagram>
  <diagram name="H-L Reqs." id="h9jbHCem-ycJ2uZCTOwV">
    <mxGraphModel dx="1186" dy="795" grid="1" gridSize="10" guides="1" tooltips="1" connect="1" arrows="1" fold="1" page="1" pageScale="1" pageWidth="850" pageHeight="1100" math="0" shadow="0">
      <root>
        <mxCell id="9m_CjEebkvtOnrXl-hu_-0" />
        <mxCell id="9m_CjEebkvtOnrXl-hu_-1" parent="9m_CjEebkvtOnrXl-hu_-0" />
        <mxCell id="AXn1gOnWAieejqgXZwlD-0" value="&lt;h1&gt;High-Level Requirements&lt;/h1&gt;&lt;p&gt;1. &lt;b&gt;Enable third party business analysts to generate and validate reports on AnyCompany data without risk of leakage of PII and customer sensitive data&lt;/b&gt;&lt;/p&gt;&lt;p&gt;1.1 Third party BAs should not have access to PII and customer sensitive data: Required PII/CS datasets need to be processed, scrubbed, to remove PII/CS data from text fields, many of which are free form text such as emails and call logs.&lt;/p&gt;&lt;p&gt;1.2. Third party BAs should not have access to analytics datastores that have PII or customer sensitive data&lt;/p&gt;&lt;p&gt;1.3 Access to the datasets for third party analysis needs to be controlled and monitored&lt;/p&gt;&lt;p&gt;1.4 The data scrubbing process requires AI/ML. The medium-term solution needs to support R&amp;amp;D of AI/ML solutions by AnyCompany.&lt;/p&gt;&lt;p&gt;2. &lt;b&gt;Reduce on-going risk of leakage of PII and customer sensitive data&lt;/b&gt;&lt;/p&gt;&lt;p&gt;2.1 Have in-house team to use scrubbed data, with an option to revert scrubbed data to the original text for debugging and specific analytics&lt;/p&gt;" style="text;html=1;strokeColor=none;fillColor=none;spacing=5;spacingTop=-20;whiteSpace=wrap;overflow=hidden;rounded=0;shadow=0;labelBorderColor=none;fontSize=18;fontColor=#000000;" parent="9m_CjEebkvtOnrXl-hu_-1" vertex="1">
          <mxGeometry x="70" y="90" width="680" height="530" as="geometry" />
        </mxCell>
      </root>
    </mxGraphModel>
  </diagram>
  <diagram id="25lp0CtglmJZi7T5T5F2" name="Current State">
    <mxGraphModel dx="1186" dy="795" grid="1" gridSize="10" guides="1" tooltips="1" connect="1" arrows="1" fold="1" page="1" pageScale="1" pageWidth="850" pageHeight="1100" math="0" shadow="0">
      <root>
        <mxCell id="0" />
        <mxCell id="1" parent="0" />
        <mxCell id="h1IbnTh46kwvZ-l_5gWV-3" value="Operational Systems" style="swimlane;whiteSpace=wrap;html=1;shadow=0;strokeColor=default;fontSize=18;startSize=40;" parent="1" vertex="1">
          <mxGeometry x="59" y="80" width="180" height="540" as="geometry" />
        </mxCell>
        <mxCell id="gpUl1PO_aZrQJFSE_oQn-3" value="Interactive&lt;br&gt;Call Center" style="rounded=1;whiteSpace=wrap;html=1;shadow=0;strokeColor=default;fontSize=18;" parent="h1IbnTh46kwvZ-l_5gWV-3" vertex="1">
          <mxGeometry x="21" y="80" width="140" height="60" as="geometry" />
        </mxCell>
        <mxCell id="gpUl1PO_aZrQJFSE_oQn-4" value="Email &lt;br&gt;Support" style="rounded=1;whiteSpace=wrap;html=1;shadow=0;strokeColor=default;fontSize=18;" parent="h1IbnTh46kwvZ-l_5gWV-3" vertex="1">
          <mxGeometry x="21" y="180" width="140" height="60" as="geometry" />
        </mxCell>
        <mxCell id="gpUl1PO_aZrQJFSE_oQn-5" value="Text &amp;amp; Chatbot&amp;nbsp;&lt;br&gt;Support" style="rounded=1;whiteSpace=wrap;html=1;shadow=0;strokeColor=default;fontSize=18;" parent="h1IbnTh46kwvZ-l_5gWV-3" vertex="1">
          <mxGeometry x="21" y="280" width="140" height="60" as="geometry" />
        </mxCell>
        <mxCell id="gpUl1PO_aZrQJFSE_oQn-6" value="..." style="rounded=1;whiteSpace=wrap;html=1;shadow=0;strokeColor=default;fontSize=18;" parent="h1IbnTh46kwvZ-l_5gWV-3" vertex="1">
          <mxGeometry x="23" y="426" width="140" height="60" as="geometry" />
        </mxCell>
        <mxCell id="h1IbnTh46kwvZ-l_5gWV-4" value="Analytics Data Stores" style="swimlane;whiteSpace=wrap;html=1;shadow=0;strokeColor=default;fontSize=18;startSize=40;" parent="1" vertex="1">
          <mxGeometry x="642" y="80" width="180" height="540" as="geometry" />
        </mxCell>
        <mxCell id="gpUl1PO_aZrQJFSE_oQn-12" value="" style="shape=cylinder3;whiteSpace=wrap;html=1;boundedLbl=1;backgroundOutline=1;size=15;shadow=0;strokeColor=default;fontSize=18;fontColor=#9933FF;" parent="h1IbnTh46kwvZ-l_5gWV-4" vertex="1">
          <mxGeometry x="20" y="176" width="140" height="140" as="geometry" />
        </mxCell>
        <mxCell id="zf8lR28jDNdzLFkF-36o-1" value="&lt;font color=&quot;#9933ff&quot;&gt;PII/Sensitive&lt;br&gt;&lt;/font&gt;&amp;amp; Ops Data" style="text;html=1;strokeColor=none;fillColor=none;align=center;verticalAlign=middle;whiteSpace=wrap;rounded=0;shadow=0;labelBorderColor=none;fontSize=18;fontColor=#000000;" parent="h1IbnTh46kwvZ-l_5gWV-4" vertex="1">
          <mxGeometry x="20" y="236" width="140" height="30" as="geometry" />
        </mxCell>
        <mxCell id="h1IbnTh46kwvZ-l_5gWV-5" value="In-House &lt;br&gt;BA" style="shape=umlActor;verticalLabelPosition=bottom;verticalAlign=top;html=1;outlineConnect=0;shadow=0;fontSize=18;" parent="1" vertex="1">
          <mxGeometry x="1142" y="276" width="30" height="60" as="geometry" />
        </mxCell>
        <mxCell id="gpUl1PO_aZrQJFSE_oQn-7" value="Data Sets" style="swimlane;whiteSpace=wrap;html=1;shadow=0;strokeColor=default;fontSize=18;startSize=40;" parent="1" vertex="1">
          <mxGeometry x="300" y="80" width="180" height="540" as="geometry" />
        </mxCell>
        <mxCell id="gpUl1PO_aZrQJFSE_oQn-8" value="&lt;font color=&quot;#9933ff&quot;&gt;Call Logs&lt;/font&gt; &amp;amp; Operations Data" style="rounded=1;whiteSpace=wrap;html=1;shadow=0;strokeColor=default;fontSize=18;" parent="gpUl1PO_aZrQJFSE_oQn-7" vertex="1">
          <mxGeometry x="18" y="80" width="140" height="60" as="geometry" />
        </mxCell>
        <mxCell id="gpUl1PO_aZrQJFSE_oQn-9" value="&lt;font color=&quot;#9933ff&quot;&gt;Emails&lt;/font&gt; &amp;amp; Operations Data" style="rounded=1;whiteSpace=wrap;html=1;shadow=0;strokeColor=default;fontSize=18;" parent="gpUl1PO_aZrQJFSE_oQn-7" vertex="1">
          <mxGeometry x="18" y="180" width="140" height="60" as="geometry" />
        </mxCell>
        <mxCell id="gpUl1PO_aZrQJFSE_oQn-10" value="&lt;font color=&quot;#9933ff&quot;&gt;Texts&lt;/font&gt; &amp;amp;&lt;br&gt;Operations Data" style="rounded=1;whiteSpace=wrap;html=1;shadow=0;strokeColor=default;fontSize=18;" parent="gpUl1PO_aZrQJFSE_oQn-7" vertex="1">
          <mxGeometry x="18" y="280" width="140" height="60" as="geometry" />
        </mxCell>
        <mxCell id="gpUl1PO_aZrQJFSE_oQn-11" value="&lt;font color=&quot;#9933ff&quot;&gt;PII/Sensitive&lt;/font&gt; &amp;amp;&lt;br&gt;Operations Data" style="rounded=1;whiteSpace=wrap;html=1;shadow=0;strokeColor=default;fontSize=18;" parent="gpUl1PO_aZrQJFSE_oQn-7" vertex="1">
          <mxGeometry x="20" y="420" width="140" height="60" as="geometry" />
        </mxCell>
        <mxCell id="gpUl1PO_aZrQJFSE_oQn-16" value="Analytics &lt;br&gt;Processes" style="swimlane;whiteSpace=wrap;html=1;shadow=0;strokeColor=default;fontSize=18;startSize=40;" parent="1" vertex="1">
          <mxGeometry x="882" y="80" width="180" height="540" as="geometry" />
        </mxCell>
        <mxCell id="gpUl1PO_aZrQJFSE_oQn-19" value="Business Analytics" style="rounded=1;whiteSpace=wrap;html=1;shadow=0;labelBorderColor=none;strokeColor=default;fontSize=18;fontColor=#000000;" parent="gpUl1PO_aZrQJFSE_oQn-16" vertex="1">
          <mxGeometry x="30" y="216" width="120" height="60" as="geometry" />
        </mxCell>
        <mxCell id="gpUl1PO_aZrQJFSE_oQn-26" value="Analytics&lt;br&gt;Warehouse" style="text;html=1;strokeColor=none;fillColor=none;align=center;verticalAlign=middle;whiteSpace=wrap;rounded=0;shadow=0;labelBorderColor=none;fontSize=18;fontColor=#000000;" parent="1" vertex="1">
          <mxGeometry x="701" y="406" width="60" height="30" as="geometry" />
        </mxCell>
        <mxCell id="4Oo0tviDNwxsVa1uIlnn-1" value="&lt;u style=&quot;caret-color: rgb(0, 0, 0); color: rgb(0, 0, 0); font-family: Helvetica; font-size: 16px; font-style: normal; font-variant-caps: normal; font-weight: 400; letter-spacing: normal; text-align: center; text-indent: 0px; text-transform: none; word-spacing: 0px; -webkit-text-stroke-width: 0px;&quot;&gt;&lt;span style=&quot;font-size: x-large;&quot;&gt;High-Level&amp;nbsp;&lt;/span&gt;&lt;font size=&quot;5&quot;&gt;Current State&lt;/font&gt;&lt;/u&gt;" style="text;whiteSpace=wrap;html=1;" parent="1" vertex="1">
          <mxGeometry x="350" y="10" width="290" height="50" as="geometry" />
        </mxCell>
        <mxCell id="wXWGEpKx-K4ZdakGSXoy-1" value="ETL" style="rounded=1;whiteSpace=wrap;html=1;fontSize=12;" vertex="1" parent="1">
          <mxGeometry x="520" y="160" width="80" height="400" as="geometry" />
        </mxCell>
      </root>
    </mxGraphModel>
  </diagram>
  <diagram name="Future State" id="HBv1KzzV3jWL5Cb1V32m">
    <mxGraphModel dx="1186" dy="795" grid="1" gridSize="10" guides="1" tooltips="1" connect="1" arrows="1" fold="1" page="1" pageScale="1" pageWidth="850" pageHeight="1100" math="0" shadow="0">
      <root>
        <mxCell id="hyJC9mIuy3ANaXY3VcQb-0" />
        <mxCell id="hyJC9mIuy3ANaXY3VcQb-1" parent="hyJC9mIuy3ANaXY3VcQb-0" />
        <mxCell id="jfbZeoB1SQRcuPLxXEkU-0" value="" style="ellipse;whiteSpace=wrap;html=1;aspect=fixed;shadow=0;labelBorderColor=none;strokeColor=#82b366;fontSize=18;fillColor=#d5e8d4;" parent="hyJC9mIuy3ANaXY3VcQb-1" vertex="1">
          <mxGeometry x="1092" y="220" width="126" height="126" as="geometry" />
        </mxCell>
        <mxCell id="EOGJp4S5Fbets7nDKM-p-0" value="" style="ellipse;whiteSpace=wrap;html=1;aspect=fixed;shadow=0;labelBorderColor=none;strokeColor=#82b366;fontSize=18;fillColor=#d5e8d4;" parent="hyJC9mIuy3ANaXY3VcQb-1" vertex="1">
          <mxGeometry x="1094" y="370" width="126" height="126" as="geometry" />
        </mxCell>
        <mxCell id="hyJC9mIuy3ANaXY3VcQb-2" value="Operational Systems" style="swimlane;whiteSpace=wrap;html=1;shadow=0;strokeColor=default;fontSize=18;startSize=40;" parent="hyJC9mIuy3ANaXY3VcQb-1" vertex="1">
          <mxGeometry x="59" y="80" width="180" height="540" as="geometry" />
        </mxCell>
        <mxCell id="hyJC9mIuy3ANaXY3VcQb-3" value="Interactive&lt;br&gt;Call Center" style="rounded=1;whiteSpace=wrap;html=1;shadow=0;strokeColor=default;fontSize=18;" parent="hyJC9mIuy3ANaXY3VcQb-2" vertex="1">
          <mxGeometry x="21" y="80" width="140" height="60" as="geometry" />
        </mxCell>
        <mxCell id="hyJC9mIuy3ANaXY3VcQb-4" value="Email &lt;br&gt;Support" style="rounded=1;whiteSpace=wrap;html=1;shadow=0;strokeColor=default;fontSize=18;" parent="hyJC9mIuy3ANaXY3VcQb-2" vertex="1">
          <mxGeometry x="21" y="180" width="140" height="60" as="geometry" />
        </mxCell>
        <mxCell id="hyJC9mIuy3ANaXY3VcQb-5" value="Text &amp;amp; Chatbot&amp;nbsp;&lt;br&gt;Support" style="rounded=1;whiteSpace=wrap;html=1;shadow=0;strokeColor=default;fontSize=18;" parent="hyJC9mIuy3ANaXY3VcQb-2" vertex="1">
          <mxGeometry x="21" y="280" width="140" height="60" as="geometry" />
        </mxCell>
        <mxCell id="hyJC9mIuy3ANaXY3VcQb-6" value="..." style="rounded=1;whiteSpace=wrap;html=1;shadow=0;strokeColor=default;fontSize=18;" parent="hyJC9mIuy3ANaXY3VcQb-2" vertex="1">
          <mxGeometry x="23" y="426" width="140" height="60" as="geometry" />
        </mxCell>
        <mxCell id="hyJC9mIuy3ANaXY3VcQb-7" value="Analytics Data Stores &amp;amp; Systems" style="swimlane;whiteSpace=wrap;html=1;shadow=0;strokeColor=default;fontSize=18;startSize=40;" parent="hyJC9mIuy3ANaXY3VcQb-1" vertex="1">
          <mxGeometry x="642" y="80" width="180" height="540" as="geometry" />
        </mxCell>
        <mxCell id="0Jkv3jb7glhRKEIvXEkH-0" value="" style="shape=cylinder3;whiteSpace=wrap;html=1;boundedLbl=1;backgroundOutline=1;size=15;shadow=0;fontSize=18;fillColor=#d5e8d4;strokeColor=#82b366;" parent="hyJC9mIuy3ANaXY3VcQb-7" vertex="1">
          <mxGeometry x="20" y="90" width="140" height="140" as="geometry" />
        </mxCell>
        <mxCell id="0Jkv3jb7glhRKEIvXEkH-1" value="Analytics&lt;br&gt;Data Store" style="text;html=1;strokeColor=none;fillColor=none;align=center;verticalAlign=middle;whiteSpace=wrap;rounded=0;shadow=0;labelBorderColor=none;fontSize=18;fontColor=#000000;" parent="hyJC9mIuy3ANaXY3VcQb-7" vertex="1">
          <mxGeometry x="20" y="240" width="130" height="30" as="geometry" />
        </mxCell>
        <mxCell id="O4PE7a0Fi9K-1KhrLcxD-1" value="AI/ML&lt;br&gt;Tools &amp;amp; Infra." style="rounded=1;whiteSpace=wrap;html=1;shadow=0;strokeColor=#82b366;fontSize=18;fillColor=#d5e8d4;" parent="hyJC9mIuy3ANaXY3VcQb-7" vertex="1">
          <mxGeometry x="20" y="370" width="140" height="60" as="geometry" />
        </mxCell>
        <mxCell id="gAzMdX1-zWV9BWONYZ82-0" value="&lt;font color=&quot;#009900&quot;&gt;Scrubbed&lt;/font&gt;&lt;br&gt;&amp;amp; Ops Data" style="text;html=1;strokeColor=none;fillColor=none;align=center;verticalAlign=middle;whiteSpace=wrap;rounded=0;shadow=0;labelBorderColor=none;fontSize=18;fontColor=#000000;" parent="hyJC9mIuy3ANaXY3VcQb-7" vertex="1">
          <mxGeometry x="20" y="145" width="140" height="30" as="geometry" />
        </mxCell>
        <mxCell id="hyJC9mIuy3ANaXY3VcQb-10" value="In-House &lt;br&gt;BA / DS" style="shape=umlActor;verticalLabelPosition=bottom;verticalAlign=top;html=1;outlineConnect=0;shadow=0;strokeColor=#82b366;fontSize=18;fillColor=#d5e8d4;" parent="hyJC9mIuy3ANaXY3VcQb-1" vertex="1">
          <mxGeometry x="1141" y="230" width="30" height="60" as="geometry" />
        </mxCell>
        <mxCell id="hyJC9mIuy3ANaXY3VcQb-11" value="3rd Party&lt;br&gt;BA / DS" style="shape=umlActor;verticalLabelPosition=bottom;verticalAlign=top;html=1;outlineConnect=0;shadow=0;strokeColor=#82b366;fontSize=18;fillColor=#d5e8d4;" parent="hyJC9mIuy3ANaXY3VcQb-1" vertex="1">
          <mxGeometry x="1143" y="386" width="30" height="50" as="geometry" />
        </mxCell>
        <mxCell id="hyJC9mIuy3ANaXY3VcQb-12" value="Data Sets" style="swimlane;whiteSpace=wrap;html=1;shadow=0;strokeColor=default;fontSize=18;startSize=40;" parent="hyJC9mIuy3ANaXY3VcQb-1" vertex="1">
          <mxGeometry x="300" y="80" width="180" height="540" as="geometry" />
        </mxCell>
        <mxCell id="hyJC9mIuy3ANaXY3VcQb-13" value="&lt;font color=&quot;#9933ff&quot;&gt;Call Logs&lt;/font&gt; &amp;amp; Operations Data" style="rounded=1;whiteSpace=wrap;html=1;shadow=0;strokeColor=default;fontSize=18;" parent="hyJC9mIuy3ANaXY3VcQb-12" vertex="1">
          <mxGeometry x="18" y="80" width="140" height="60" as="geometry" />
        </mxCell>
        <mxCell id="hyJC9mIuy3ANaXY3VcQb-14" value="&lt;font color=&quot;#9933ff&quot;&gt;Emails&lt;/font&gt; &amp;amp; Operations Data" style="rounded=1;whiteSpace=wrap;html=1;shadow=0;strokeColor=default;fontSize=18;" parent="hyJC9mIuy3ANaXY3VcQb-12" vertex="1">
          <mxGeometry x="18" y="180" width="140" height="60" as="geometry" />
        </mxCell>
        <mxCell id="hyJC9mIuy3ANaXY3VcQb-15" value="&lt;font color=&quot;#9933ff&quot;&gt;Texts&lt;/font&gt; &amp;amp;&lt;br&gt;Operations Data" style="rounded=1;whiteSpace=wrap;html=1;shadow=0;strokeColor=default;fontSize=18;" parent="hyJC9mIuy3ANaXY3VcQb-12" vertex="1">
          <mxGeometry x="18" y="280" width="140" height="60" as="geometry" />
        </mxCell>
        <mxCell id="hyJC9mIuy3ANaXY3VcQb-16" value="&lt;font color=&quot;#9933ff&quot;&gt;PII/Sensitive&lt;/font&gt; &amp;amp;&lt;br&gt;Operations Data" style="rounded=1;whiteSpace=wrap;html=1;shadow=0;strokeColor=default;fontSize=18;" parent="hyJC9mIuy3ANaXY3VcQb-12" vertex="1">
          <mxGeometry x="20" y="420" width="140" height="60" as="geometry" />
        </mxCell>
        <mxCell id="hyJC9mIuy3ANaXY3VcQb-17" value="Analytics &lt;br&gt;Processes" style="swimlane;whiteSpace=wrap;html=1;shadow=0;strokeColor=default;fontSize=18;startSize=40;" parent="hyJC9mIuy3ANaXY3VcQb-1" vertex="1">
          <mxGeometry x="882" y="80" width="180" height="540" as="geometry" />
        </mxCell>
        <mxCell id="hyJC9mIuy3ANaXY3VcQb-19" value="Business Analytics" style="rounded=1;whiteSpace=wrap;html=1;shadow=0;labelBorderColor=none;strokeColor=#82b366;fontSize=18;fillColor=#d5e8d4;" parent="hyJC9mIuy3ANaXY3VcQb-17" vertex="1">
          <mxGeometry x="30" y="130" width="120" height="60" as="geometry" />
        </mxCell>
        <mxCell id="hyJC9mIuy3ANaXY3VcQb-21" value="AI/ML" style="rounded=1;whiteSpace=wrap;html=1;shadow=0;labelBorderColor=none;strokeColor=#82b366;fontSize=18;fillColor=#d5e8d4;" parent="hyJC9mIuy3ANaXY3VcQb-17" vertex="1">
          <mxGeometry x="30" y="370" width="120" height="60" as="geometry" />
        </mxCell>
        <mxCell id="ElxA8o0fKQ1-Yx0iaPZt-0" value="&lt;u&gt;&lt;span style=&quot;font-size: x-large;&quot;&gt;High-Level&amp;nbsp;&lt;/span&gt;&lt;font size=&quot;5&quot;&gt;Future State&lt;/font&gt;&lt;/u&gt;" style="text;html=1;strokeColor=none;fillColor=none;align=center;verticalAlign=middle;whiteSpace=wrap;rounded=0;fontSize=16;" parent="hyJC9mIuy3ANaXY3VcQb-1" vertex="1">
          <mxGeometry x="190" y="20" width="520" height="30" as="geometry" />
        </mxCell>
        <mxCell id="7jgwtlE8HIpwd6kJcjFy-0" value="ETL" style="rounded=1;whiteSpace=wrap;html=1;fontSize=12;" vertex="1" parent="hyJC9mIuy3ANaXY3VcQb-1">
          <mxGeometry x="520" y="160" width="80" height="400" as="geometry" />
        </mxCell>
        <mxCell id="iMYa6rATb_xm3hTtFsLh-0" value="PII /&lt;br&gt;Sensitive&lt;br&gt;Data&lt;br&gt;Scrub" style="rounded=1;whiteSpace=wrap;html=1;fontSize=12;fillColor=#d5e8d4;strokeColor=#82b366;" vertex="1" parent="hyJC9mIuy3ANaXY3VcQb-1">
          <mxGeometry x="531" y="220" width="60" height="80" as="geometry" />
        </mxCell>
      </root>
    </mxGraphModel>
  </diagram>
  <diagram id="fh6pX0H431qZWD7UBe4o" name="Functional Reqs.">
    <mxGraphModel dx="1186" dy="795" grid="1" gridSize="10" guides="1" tooltips="1" connect="1" arrows="1" fold="1" page="1" pageScale="1" pageWidth="850" pageHeight="1100" math="0" shadow="0">
      <root>
        <mxCell id="0" />
        <mxCell id="1" parent="0" />
        <mxCell id="1e2lntcsRV8ktcmZfCRR-11" value="" style="edgeStyle=orthogonalEdgeStyle;rounded=0;orthogonalLoop=1;jettySize=auto;html=1;fontSize=18;" parent="1" source="biFjLUMGbpg6rF05HD9G-2" target="1e2lntcsRV8ktcmZfCRR-10" edge="1">
          <mxGeometry relative="1" as="geometry" />
        </mxCell>
        <mxCell id="1e2lntcsRV8ktcmZfCRR-16" value="" style="edgeStyle=orthogonalEdgeStyle;rounded=0;orthogonalLoop=1;jettySize=auto;html=1;fontSize=18;exitX=1.018;exitY=0.4;exitDx=0;exitDy=0;exitPerimeter=0;" parent="1" source="1e2lntcsRV8ktcmZfCRR-2" target="1e2lntcsRV8ktcmZfCRR-15" edge="1">
          <mxGeometry relative="1" as="geometry">
            <Array as="points">
              <mxPoint x="443" y="359" />
              <mxPoint x="443" y="350" />
              <mxPoint x="710" y="350" />
            </Array>
          </mxGeometry>
        </mxCell>
        <mxCell id="biFjLUMGbpg6rF05HD9G-2" value="Sensitive Data Detection" style="ellipse;whiteSpace=wrap;html=1;" parent="1" vertex="1">
          <mxGeometry x="460" y="215" width="120" height="40" as="geometry" />
        </mxCell>
        <mxCell id="1e2lntcsRV8ktcmZfCRR-4" value="" style="edgeStyle=orthogonalEdgeStyle;rounded=0;orthogonalLoop=1;jettySize=auto;html=1;fontSize=18;" parent="1" source="biFjLUMGbpg6rF05HD9G-4" target="1e2lntcsRV8ktcmZfCRR-3" edge="1">
          <mxGeometry relative="1" as="geometry" />
        </mxCell>
        <mxCell id="1e2lntcsRV8ktcmZfCRR-7" value="" style="edgeStyle=orthogonalEdgeStyle;rounded=0;orthogonalLoop=1;jettySize=auto;html=1;fontSize=18;" parent="1" source="biFjLUMGbpg6rF05HD9G-4" target="1e2lntcsRV8ktcmZfCRR-6" edge="1">
          <mxGeometry relative="1" as="geometry" />
        </mxCell>
        <mxCell id="biFjLUMGbpg6rF05HD9G-4" value="Interfaces" style="ellipse;whiteSpace=wrap;html=1;" parent="1" vertex="1">
          <mxGeometry x="110" y="215" width="120" height="40" as="geometry" />
        </mxCell>
        <mxCell id="1e2lntcsRV8ktcmZfCRR-9" value="" style="edgeStyle=orthogonalEdgeStyle;rounded=0;orthogonalLoop=1;jettySize=auto;html=1;fontSize=18;" parent="1" source="DzykFqKgfEABbtOcEbP5-20" target="1e2lntcsRV8ktcmZfCRR-8" edge="1">
          <mxGeometry relative="1" as="geometry" />
        </mxCell>
        <mxCell id="DzykFqKgfEABbtOcEbP5-20" value="PII &amp;nbsp;Detection" style="ellipse;whiteSpace=wrap;html=1;" parent="1" vertex="1">
          <mxGeometry x="305" y="215" width="120" height="40" as="geometry" />
        </mxCell>
        <mxCell id="1e2lntcsRV8ktcmZfCRR-1" value="&lt;font style=&quot;font-size: 24px;&quot;&gt;&lt;u&gt;Functional Requirements: PII/Sensitive Data Scrub&lt;/u&gt;&lt;/font&gt;" style="text;html=1;strokeColor=none;fillColor=none;align=center;verticalAlign=middle;whiteSpace=wrap;rounded=0;fontSize=16;" parent="1" vertex="1">
          <mxGeometry x="140" y="20" width="570" height="30" as="geometry" />
        </mxCell>
        <mxCell id="1e2lntcsRV8ktcmZfCRR-12" style="edgeStyle=orthogonalEdgeStyle;rounded=0;orthogonalLoop=1;jettySize=auto;html=1;entryX=0.5;entryY=1;entryDx=0;entryDy=0;fontSize=18;" parent="1" source="1e2lntcsRV8ktcmZfCRR-2" target="DzykFqKgfEABbtOcEbP5-20" edge="1">
          <mxGeometry relative="1" as="geometry" />
        </mxCell>
        <mxCell id="1e2lntcsRV8ktcmZfCRR-13" style="edgeStyle=orthogonalEdgeStyle;rounded=0;orthogonalLoop=1;jettySize=auto;html=1;fontSize=18;" parent="1" source="1e2lntcsRV8ktcmZfCRR-2" target="biFjLUMGbpg6rF05HD9G-2" edge="1">
          <mxGeometry relative="1" as="geometry">
            <Array as="points">
              <mxPoint x="510" y="340" />
            </Array>
          </mxGeometry>
        </mxCell>
        <mxCell id="1e2lntcsRV8ktcmZfCRR-14" style="edgeStyle=orthogonalEdgeStyle;rounded=0;orthogonalLoop=1;jettySize=auto;html=1;entryX=0.5;entryY=1;entryDx=0;entryDy=0;fontSize=18;" parent="1" source="1e2lntcsRV8ktcmZfCRR-2" target="biFjLUMGbpg6rF05HD9G-4" edge="1">
          <mxGeometry relative="1" as="geometry">
            <Array as="points">
              <mxPoint x="170" y="340" />
            </Array>
          </mxGeometry>
        </mxCell>
        <mxCell id="1e2lntcsRV8ktcmZfCRR-27" value="" style="edgeStyle=orthogonalEdgeStyle;rounded=0;orthogonalLoop=1;jettySize=auto;html=1;fontSize=12;" parent="1" source="1e2lntcsRV8ktcmZfCRR-2" target="1e2lntcsRV8ktcmZfCRR-26" edge="1">
          <mxGeometry relative="1" as="geometry" />
        </mxCell>
        <mxCell id="1e2lntcsRV8ktcmZfCRR-2" value="&lt;font style=&quot;font-size: 18px;&quot;&gt;PII/Sensitive &lt;br&gt;Data Scrub&lt;br&gt;&lt;/font&gt;" style="rounded=1;whiteSpace=wrap;html=1;fontSize=24;fillColor=#d5e8d4;strokeColor=#82b366;" parent="1" vertex="1">
          <mxGeometry x="310" y="335" width="170" height="60" as="geometry" />
        </mxCell>
        <mxCell id="1e2lntcsRV8ktcmZfCRR-3" value="Request/Response" style="ellipse;whiteSpace=wrap;html=1;" parent="1" vertex="1">
          <mxGeometry x="30" y="115" width="120" height="40" as="geometry" />
        </mxCell>
        <mxCell id="1e2lntcsRV8ktcmZfCRR-6" value="Batch" style="ellipse;whiteSpace=wrap;html=1;" parent="1" vertex="1">
          <mxGeometry x="160" y="115" width="120" height="40" as="geometry" />
        </mxCell>
        <mxCell id="1e2lntcsRV8ktcmZfCRR-8" value="First, Last Name&lt;br&gt;Address, Email, Phone" style="ellipse;shape=cloud;whiteSpace=wrap;html=1;" parent="1" vertex="1">
          <mxGeometry x="270" y="75" width="190" height="80" as="geometry" />
        </mxCell>
        <mxCell id="1e2lntcsRV8ktcmZfCRR-10" value="Organizations, Customers" style="ellipse;shape=cloud;whiteSpace=wrap;html=1;" parent="1" vertex="1">
          <mxGeometry x="460" y="85" width="120" height="80" as="geometry" />
        </mxCell>
        <mxCell id="1e2lntcsRV8ktcmZfCRR-18" value="" style="edgeStyle=orthogonalEdgeStyle;rounded=0;orthogonalLoop=1;jettySize=auto;html=1;fontSize=18;" parent="1" source="1e2lntcsRV8ktcmZfCRR-15" target="1e2lntcsRV8ktcmZfCRR-17" edge="1">
          <mxGeometry relative="1" as="geometry" />
        </mxCell>
        <mxCell id="1e2lntcsRV8ktcmZfCRR-20" value="" style="edgeStyle=orthogonalEdgeStyle;rounded=0;orthogonalLoop=1;jettySize=auto;html=1;fontSize=18;" parent="1" source="1e2lntcsRV8ktcmZfCRR-15" target="1e2lntcsRV8ktcmZfCRR-19" edge="1">
          <mxGeometry relative="1" as="geometry" />
        </mxCell>
        <mxCell id="1e2lntcsRV8ktcmZfCRR-15" value="Data Replacement" style="ellipse;whiteSpace=wrap;html=1;" parent="1" vertex="1">
          <mxGeometry x="650" y="215" width="120" height="40" as="geometry" />
        </mxCell>
        <mxCell id="1e2lntcsRV8ktcmZfCRR-17" value="Reversible" style="ellipse;whiteSpace=wrap;html=1;" parent="1" vertex="1">
          <mxGeometry x="600" y="95" width="120" height="40" as="geometry" />
        </mxCell>
        <mxCell id="1e2lntcsRV8ktcmZfCRR-19" value="From corresponding domain" style="ellipse;whiteSpace=wrap;html=1;" parent="1" vertex="1">
          <mxGeometry x="730" y="95" width="120" height="40" as="geometry" />
        </mxCell>
        <mxCell id="1e2lntcsRV8ktcmZfCRR-32" value="" style="edgeStyle=orthogonalEdgeStyle;rounded=0;orthogonalLoop=1;jettySize=auto;html=1;fontSize=12;" parent="1" source="1e2lntcsRV8ktcmZfCRR-26" target="1e2lntcsRV8ktcmZfCRR-31" edge="1">
          <mxGeometry relative="1" as="geometry" />
        </mxCell>
        <mxCell id="1e2lntcsRV8ktcmZfCRR-38" value="" style="edgeStyle=orthogonalEdgeStyle;rounded=0;orthogonalLoop=1;jettySize=auto;html=1;fontSize=12;exitX=0;exitY=1;exitDx=0;exitDy=0;" parent="1" source="1e2lntcsRV8ktcmZfCRR-2" target="1e2lntcsRV8ktcmZfCRR-37" edge="1">
          <mxGeometry relative="1" as="geometry" />
        </mxCell>
        <mxCell id="b9K5BruIJcjVmoibGPSe-6" value="" style="edgeStyle=orthogonalEdgeStyle;rounded=0;orthogonalLoop=1;jettySize=auto;html=1;exitX=0.75;exitY=1;exitDx=0;exitDy=0;" parent="1" source="1e2lntcsRV8ktcmZfCRR-2" target="b9K5BruIJcjVmoibGPSe-5" edge="1">
          <mxGeometry relative="1" as="geometry" />
        </mxCell>
        <mxCell id="1e2lntcsRV8ktcmZfCRR-26" value="&lt;div style=&quot;text-align: justify;&quot;&gt;&lt;span style=&quot;font-size: 12px;&quot;&gt;Language Support&lt;/span&gt;&lt;/div&gt;" style="ellipse;whiteSpace=wrap;html=1;fontSize=24;rounded=1;align=center;" parent="1" vertex="1">
          <mxGeometry x="322" y="450" width="120" height="40" as="geometry" />
        </mxCell>
        <mxCell id="1e2lntcsRV8ktcmZfCRR-31" value="&lt;font style=&quot;font-size: 12px;&quot;&gt;English, French,TBD&lt;/font&gt;" style="ellipse;shape=cloud;whiteSpace=wrap;html=1;fontSize=24;rounded=1;" parent="1" vertex="1">
          <mxGeometry x="297" y="550" width="170" height="80" as="geometry" />
        </mxCell>
        <mxCell id="1e2lntcsRV8ktcmZfCRR-40" value="" style="edgeStyle=orthogonalEdgeStyle;rounded=0;orthogonalLoop=1;jettySize=auto;html=1;fontSize=12;" parent="1" source="1e2lntcsRV8ktcmZfCRR-37" target="1e2lntcsRV8ktcmZfCRR-39" edge="1">
          <mxGeometry relative="1" as="geometry" />
        </mxCell>
        <mxCell id="1e2lntcsRV8ktcmZfCRR-37" value="&lt;div style=&quot;text-align: justify;&quot;&gt;&lt;span style=&quot;font-size: 12px;&quot;&gt;Content Types&lt;/span&gt;&lt;/div&gt;" style="ellipse;whiteSpace=wrap;html=1;fontSize=24;rounded=1;align=center;" parent="1" vertex="1">
          <mxGeometry x="95" y="450" width="120" height="40" as="geometry" />
        </mxCell>
        <mxCell id="1e2lntcsRV8ktcmZfCRR-39" value="&lt;p style=&quot;line-height: 50%;&quot;&gt;&lt;font style=&quot;font-size: 12px;&quot;&gt;call logs, emails, text messages&lt;/font&gt;&lt;/p&gt;" style="ellipse;shape=cloud;whiteSpace=wrap;html=1;fontSize=24;rounded=1;align=center;" parent="1" vertex="1">
          <mxGeometry x="70" y="550" width="145" height="80" as="geometry" />
        </mxCell>
        <mxCell id="b9K5BruIJcjVmoibGPSe-11" style="edgeStyle=orthogonalEdgeStyle;rounded=0;orthogonalLoop=1;jettySize=auto;html=1;entryX=0.4;entryY=0.1;entryDx=0;entryDy=0;entryPerimeter=0;fontSize=12;" parent="1" source="b9K5BruIJcjVmoibGPSe-5" target="b9K5BruIJcjVmoibGPSe-9" edge="1">
          <mxGeometry relative="1" as="geometry" />
        </mxCell>
        <mxCell id="b9K5BruIJcjVmoibGPSe-12" value="" style="edgeStyle=orthogonalEdgeStyle;rounded=0;orthogonalLoop=1;jettySize=auto;html=1;fontSize=12;" parent="1" target="b9K5BruIJcjVmoibGPSe-10" edge="1">
          <mxGeometry relative="1" as="geometry">
            <mxPoint x="560" y="490" as="sourcePoint" />
          </mxGeometry>
        </mxCell>
        <mxCell id="b9K5BruIJcjVmoibGPSe-5" value="&lt;div style=&quot;text-align: justify;&quot;&gt;&lt;span style=&quot;font-size: 12px;&quot;&gt;Adaptability&lt;/span&gt;&lt;/div&gt;" style="ellipse;whiteSpace=wrap;html=1;fontSize=24;rounded=1;align=center;" parent="1" vertex="1">
          <mxGeometry x="495" y="450" width="120" height="40" as="geometry" />
        </mxCell>
        <mxCell id="b9K5BruIJcjVmoibGPSe-9" value="Rapid development and deployment of custom AI/ML to support changing requirements&amp;nbsp;" style="ellipse;shape=cloud;whiteSpace=wrap;html=1;spacingLeft=18;" parent="1" vertex="1">
          <mxGeometry x="471" y="560" width="210" height="80" as="geometry" />
        </mxCell>
        <mxCell id="b9K5BruIJcjVmoibGPSe-10" value="Works with pre-built and custom&lt;br&gt;AI/ML engines" style="ellipse;shape=cloud;whiteSpace=wrap;html=1;" parent="1" vertex="1">
          <mxGeometry x="610" y="490" width="210" height="80" as="geometry" />
        </mxCell>
      </root>
    </mxGraphModel>
  </diagram>
  <diagram name="Non-Func. Reqs." id="h94NcZVnJJBcJJlRhdZV">
    <mxGraphModel dx="1186" dy="795" grid="1" gridSize="10" guides="1" tooltips="1" connect="1" arrows="1" fold="1" page="1" pageScale="1" pageWidth="850" pageHeight="1100" math="0" shadow="0">
      <root>
        <mxCell id="HlYiuG5ErMYe60urcanL-0" />
        <mxCell id="HlYiuG5ErMYe60urcanL-1" parent="HlYiuG5ErMYe60urcanL-0" />
        <mxCell id="HlYiuG5ErMYe60urcanL-3" value="" style="edgeStyle=orthogonalEdgeStyle;rounded=0;orthogonalLoop=1;jettySize=auto;html=1;fontSize=18;" parent="HlYiuG5ErMYe60urcanL-1" edge="1">
          <mxGeometry relative="1" as="geometry">
            <mxPoint x="510" y="215" as="sourcePoint" />
          </mxGeometry>
        </mxCell>
        <mxCell id="HlYiuG5ErMYe60urcanL-6" value="" style="edgeStyle=orthogonalEdgeStyle;rounded=0;orthogonalLoop=1;jettySize=auto;html=1;fontSize=18;" parent="HlYiuG5ErMYe60urcanL-1" source="HlYiuG5ErMYe60urcanL-8" target="HlYiuG5ErMYe60urcanL-20" edge="1">
          <mxGeometry relative="1" as="geometry" />
        </mxCell>
        <mxCell id="HlYiuG5ErMYe60urcanL-7" value="" style="edgeStyle=orthogonalEdgeStyle;rounded=0;orthogonalLoop=1;jettySize=auto;html=1;fontSize=18;" parent="HlYiuG5ErMYe60urcanL-1" source="HlYiuG5ErMYe60urcanL-8" target="HlYiuG5ErMYe60urcanL-21" edge="1">
          <mxGeometry relative="1" as="geometry" />
        </mxCell>
        <mxCell id="HlYiuG5ErMYe60urcanL-8" value="Performance Efficiency&amp;nbsp;" style="ellipse;whiteSpace=wrap;html=1;" parent="HlYiuG5ErMYe60urcanL-1" vertex="1">
          <mxGeometry x="110" y="215" width="120" height="40" as="geometry" />
        </mxCell>
        <mxCell id="8E0tDDwB25otEQbExK8r-19" style="edgeStyle=orthogonalEdgeStyle;rounded=0;orthogonalLoop=1;jettySize=auto;html=1;" parent="HlYiuG5ErMYe60urcanL-1" source="HlYiuG5ErMYe60urcanL-10" target="8E0tDDwB25otEQbExK8r-17" edge="1">
          <mxGeometry relative="1" as="geometry" />
        </mxCell>
        <mxCell id="8E0tDDwB25otEQbExK8r-20" style="edgeStyle=orthogonalEdgeStyle;rounded=0;orthogonalLoop=1;jettySize=auto;html=1;" parent="HlYiuG5ErMYe60urcanL-1" source="HlYiuG5ErMYe60urcanL-10" target="8E0tDDwB25otEQbExK8r-18" edge="1">
          <mxGeometry relative="1" as="geometry" />
        </mxCell>
        <mxCell id="HlYiuG5ErMYe60urcanL-10" value="Reliability" style="ellipse;whiteSpace=wrap;html=1;" parent="HlYiuG5ErMYe60urcanL-1" vertex="1">
          <mxGeometry x="365" y="215" width="120" height="40" as="geometry" />
        </mxCell>
        <mxCell id="HlYiuG5ErMYe60urcanL-15" style="edgeStyle=orthogonalEdgeStyle;rounded=0;orthogonalLoop=1;jettySize=auto;html=1;entryX=0.5;entryY=1;entryDx=0;entryDy=0;fontSize=18;" parent="HlYiuG5ErMYe60urcanL-1" source="HlYiuG5ErMYe60urcanL-19" target="HlYiuG5ErMYe60urcanL-10" edge="1">
          <mxGeometry relative="1" as="geometry" />
        </mxCell>
        <mxCell id="HlYiuG5ErMYe60urcanL-17" style="edgeStyle=orthogonalEdgeStyle;rounded=0;orthogonalLoop=1;jettySize=auto;html=1;entryX=0.5;entryY=1;entryDx=0;entryDy=0;fontSize=18;" parent="HlYiuG5ErMYe60urcanL-1" source="HlYiuG5ErMYe60urcanL-19" target="HlYiuG5ErMYe60urcanL-8" edge="1">
          <mxGeometry relative="1" as="geometry">
            <Array as="points">
              <mxPoint x="170" y="340" />
            </Array>
          </mxGeometry>
        </mxCell>
        <mxCell id="HlYiuG5ErMYe60urcanL-18" value="" style="edgeStyle=orthogonalEdgeStyle;rounded=0;orthogonalLoop=1;jettySize=auto;html=1;fontSize=12;" parent="HlYiuG5ErMYe60urcanL-1" source="HlYiuG5ErMYe60urcanL-19" target="HlYiuG5ErMYe60urcanL-31" edge="1">
          <mxGeometry relative="1" as="geometry" />
        </mxCell>
        <mxCell id="8E0tDDwB25otEQbExK8r-16" style="edgeStyle=orthogonalEdgeStyle;rounded=0;orthogonalLoop=1;jettySize=auto;html=1;" parent="HlYiuG5ErMYe60urcanL-1" source="HlYiuG5ErMYe60urcanL-19" target="HlYiuG5ErMYe60urcanL-26" edge="1">
          <mxGeometry relative="1" as="geometry">
            <Array as="points">
              <mxPoint x="720" y="335" />
            </Array>
          </mxGeometry>
        </mxCell>
        <mxCell id="HlYiuG5ErMYe60urcanL-19" value="&lt;span style=&quot;font-size: 18px;&quot;&gt;PII/Sensitive&amp;nbsp;&lt;/span&gt;&lt;br style=&quot;font-size: 18px;&quot;&gt;&lt;span style=&quot;font-size: 18px;&quot;&gt;Data Scrub&lt;/span&gt;" style="rounded=1;whiteSpace=wrap;html=1;fontSize=24;fillColor=#d5e8d4;strokeColor=#82b366;" parent="HlYiuG5ErMYe60urcanL-1" vertex="1">
          <mxGeometry x="340" y="335" width="170" height="60" as="geometry" />
        </mxCell>
        <mxCell id="HlYiuG5ErMYe60urcanL-20" value="Minimize &amp;nbsp; infrastructure costs" style="ellipse;whiteSpace=wrap;html=1;" parent="HlYiuG5ErMYe60urcanL-1" vertex="1">
          <mxGeometry x="30" y="115" width="120" height="40" as="geometry" />
        </mxCell>
        <mxCell id="HlYiuG5ErMYe60urcanL-21" value="Auto-scale for data processing load" style="ellipse;whiteSpace=wrap;html=1;" parent="HlYiuG5ErMYe60urcanL-1" vertex="1">
          <mxGeometry x="160" y="115" width="120" height="40" as="geometry" />
        </mxCell>
        <mxCell id="HlYiuG5ErMYe60urcanL-24" value="" style="edgeStyle=orthogonalEdgeStyle;rounded=0;orthogonalLoop=1;jettySize=auto;html=1;fontSize=18;" parent="HlYiuG5ErMYe60urcanL-1" source="HlYiuG5ErMYe60urcanL-26" target="HlYiuG5ErMYe60urcanL-27" edge="1">
          <mxGeometry relative="1" as="geometry" />
        </mxCell>
        <mxCell id="HlYiuG5ErMYe60urcanL-25" value="" style="edgeStyle=orthogonalEdgeStyle;rounded=0;orthogonalLoop=1;jettySize=auto;html=1;fontSize=18;" parent="HlYiuG5ErMYe60urcanL-1" source="HlYiuG5ErMYe60urcanL-26" target="HlYiuG5ErMYe60urcanL-28" edge="1">
          <mxGeometry relative="1" as="geometry" />
        </mxCell>
        <mxCell id="HlYiuG5ErMYe60urcanL-26" value="Sustainability" style="ellipse;whiteSpace=wrap;html=1;" parent="HlYiuG5ErMYe60urcanL-1" vertex="1">
          <mxGeometry x="660" y="215" width="120" height="40" as="geometry" />
        </mxCell>
        <mxCell id="HlYiuG5ErMYe60urcanL-27" value="Minimize GHG impact" style="ellipse;whiteSpace=wrap;html=1;" parent="HlYiuG5ErMYe60urcanL-1" vertex="1">
          <mxGeometry x="600" y="95" width="120" height="40" as="geometry" />
        </mxCell>
        <mxCell id="HlYiuG5ErMYe60urcanL-28" value="Know GHG impact&amp;nbsp;" style="ellipse;whiteSpace=wrap;html=1;" parent="HlYiuG5ErMYe60urcanL-1" vertex="1">
          <mxGeometry x="730" y="95" width="120" height="40" as="geometry" />
        </mxCell>
        <mxCell id="HlYiuG5ErMYe60urcanL-29" value="" style="edgeStyle=orthogonalEdgeStyle;rounded=0;orthogonalLoop=1;jettySize=auto;html=1;fontSize=12;entryX=0.45;entryY=-0.025;entryDx=0;entryDy=0;entryPerimeter=0;" parent="HlYiuG5ErMYe60urcanL-1" source="HlYiuG5ErMYe60urcanL-31" target="8E0tDDwB25otEQbExK8r-0" edge="1">
          <mxGeometry relative="1" as="geometry">
            <mxPoint x="665" y="550" as="targetPoint" />
          </mxGeometry>
        </mxCell>
        <mxCell id="HlYiuG5ErMYe60urcanL-30" value="" style="edgeStyle=orthogonalEdgeStyle;rounded=0;orthogonalLoop=1;jettySize=auto;html=1;fontSize=12;exitX=0.25;exitY=1;exitDx=0;exitDy=0;" parent="HlYiuG5ErMYe60urcanL-1" source="HlYiuG5ErMYe60urcanL-19" target="HlYiuG5ErMYe60urcanL-34" edge="1">
          <mxGeometry relative="1" as="geometry" />
        </mxCell>
        <mxCell id="8E0tDDwB25otEQbExK8r-6" value="" style="edgeStyle=orthogonalEdgeStyle;rounded=0;orthogonalLoop=1;jettySize=auto;html=1;" parent="HlYiuG5ErMYe60urcanL-1" source="HlYiuG5ErMYe60urcanL-31" target="8E0tDDwB25otEQbExK8r-5" edge="1">
          <mxGeometry relative="1" as="geometry" />
        </mxCell>
        <mxCell id="HlYiuG5ErMYe60urcanL-31" value="&lt;div style=&quot;text-align: justify;&quot;&gt;&lt;span style=&quot;font-size: 12px;&quot;&gt;Security&lt;/span&gt;&lt;/div&gt;" style="ellipse;whiteSpace=wrap;html=1;fontSize=24;rounded=1;align=center;" parent="HlYiuG5ErMYe60urcanL-1" vertex="1">
          <mxGeometry x="365" y="450" width="120" height="40" as="geometry" />
        </mxCell>
        <mxCell id="8E0tDDwB25otEQbExK8r-12" style="edgeStyle=orthogonalEdgeStyle;rounded=0;orthogonalLoop=1;jettySize=auto;html=1;" parent="HlYiuG5ErMYe60urcanL-1" source="HlYiuG5ErMYe60urcanL-34" target="8E0tDDwB25otEQbExK8r-11" edge="1">
          <mxGeometry relative="1" as="geometry" />
        </mxCell>
        <mxCell id="8E0tDDwB25otEQbExK8r-14" value="" style="edgeStyle=orthogonalEdgeStyle;rounded=0;orthogonalLoop=1;jettySize=auto;html=1;" parent="HlYiuG5ErMYe60urcanL-1" source="HlYiuG5ErMYe60urcanL-34" target="8E0tDDwB25otEQbExK8r-13" edge="1">
          <mxGeometry relative="1" as="geometry" />
        </mxCell>
        <mxCell id="HlYiuG5ErMYe60urcanL-34" value="&lt;div style=&quot;text-align: justify;&quot;&gt;&lt;span style=&quot;font-size: 12px;&quot;&gt;Scalability&lt;/span&gt;&lt;/div&gt;" style="ellipse;whiteSpace=wrap;html=1;fontSize=24;rounded=1;align=center;" parent="HlYiuG5ErMYe60urcanL-1" vertex="1">
          <mxGeometry x="80" y="450" width="120" height="40" as="geometry" />
        </mxCell>
        <mxCell id="8E0tDDwB25otEQbExK8r-2" value="" style="edgeStyle=orthogonalEdgeStyle;rounded=0;orthogonalLoop=1;jettySize=auto;html=1;" parent="HlYiuG5ErMYe60urcanL-1" source="8E0tDDwB25otEQbExK8r-0" target="8E0tDDwB25otEQbExK8r-1" edge="1">
          <mxGeometry relative="1" as="geometry" />
        </mxCell>
        <mxCell id="8E0tDDwB25otEQbExK8r-4" style="edgeStyle=orthogonalEdgeStyle;rounded=0;orthogonalLoop=1;jettySize=auto;html=1;entryX=0.5;entryY=0;entryDx=0;entryDy=0;" parent="HlYiuG5ErMYe60urcanL-1" source="8E0tDDwB25otEQbExK8r-0" target="8E0tDDwB25otEQbExK8r-3" edge="1">
          <mxGeometry relative="1" as="geometry" />
        </mxCell>
        <mxCell id="8E0tDDwB25otEQbExK8r-0" value="interfaces for service I/O" style="ellipse;whiteSpace=wrap;html=1;" parent="HlYiuG5ErMYe60urcanL-1" vertex="1">
          <mxGeometry x="610" y="510" width="120" height="40" as="geometry" />
        </mxCell>
        <mxCell id="8E0tDDwB25otEQbExK8r-1" value="Access Control" style="ellipse;whiteSpace=wrap;html=1;" parent="HlYiuG5ErMYe60urcanL-1" vertex="1">
          <mxGeometry x="540" y="600" width="120" height="40" as="geometry" />
        </mxCell>
        <mxCell id="8E0tDDwB25otEQbExK8r-3" value="HTTPS" style="ellipse;whiteSpace=wrap;html=1;" parent="HlYiuG5ErMYe60urcanL-1" vertex="1">
          <mxGeometry x="700" y="600" width="120" height="40" as="geometry" />
        </mxCell>
        <mxCell id="8E0tDDwB25otEQbExK8r-8" value="" style="edgeStyle=orthogonalEdgeStyle;rounded=0;orthogonalLoop=1;jettySize=auto;html=1;" parent="HlYiuG5ErMYe60urcanL-1" source="8E0tDDwB25otEQbExK8r-5" target="8E0tDDwB25otEQbExK8r-7" edge="1">
          <mxGeometry relative="1" as="geometry" />
        </mxCell>
        <mxCell id="8E0tDDwB25otEQbExK8r-10" value="" style="edgeStyle=orthogonalEdgeStyle;rounded=0;orthogonalLoop=1;jettySize=auto;html=1;" parent="HlYiuG5ErMYe60urcanL-1" source="8E0tDDwB25otEQbExK8r-5" target="8E0tDDwB25otEQbExK8r-9" edge="1">
          <mxGeometry relative="1" as="geometry" />
        </mxCell>
        <mxCell id="8E0tDDwB25otEQbExK8r-5" value="&lt;div style=&quot;text-align: justify;&quot;&gt;&lt;span style=&quot;font-size: 12px;&quot;&gt;Data at Rest&lt;/span&gt;&lt;/div&gt;" style="ellipse;whiteSpace=wrap;html=1;fontSize=24;rounded=1;align=center;" parent="HlYiuG5ErMYe60urcanL-1" vertex="1">
          <mxGeometry x="365" y="530" width="120" height="40" as="geometry" />
        </mxCell>
        <mxCell id="8E0tDDwB25otEQbExK8r-7" value="&lt;div style=&quot;text-align: justify;&quot;&gt;&lt;span style=&quot;font-size: 12px;&quot;&gt;Encrypted&lt;/span&gt;&lt;/div&gt;" style="ellipse;whiteSpace=wrap;html=1;fontSize=24;rounded=1;align=center;" parent="HlYiuG5ErMYe60urcanL-1" vertex="1">
          <mxGeometry x="365" y="610" width="120" height="40" as="geometry" />
        </mxCell>
        <mxCell id="8E0tDDwB25otEQbExK8r-9" value="&lt;div style=&quot;text-align: justify;&quot;&gt;&lt;span style=&quot;font-size: 12px;&quot;&gt;Access Contol&lt;/span&gt;&lt;/div&gt;" style="ellipse;whiteSpace=wrap;html=1;fontSize=24;rounded=1;align=center;" parent="HlYiuG5ErMYe60urcanL-1" vertex="1">
          <mxGeometry x="230" y="610" width="120" height="40" as="geometry" />
        </mxCell>
        <mxCell id="8E0tDDwB25otEQbExK8r-11" value="&lt;div style=&quot;text-align: justify;&quot;&gt;&lt;span style=&quot;font-size: 12px;&quot;&gt;Data at Rest (TB)&lt;/span&gt;&lt;/div&gt;" style="ellipse;whiteSpace=wrap;html=1;fontSize=24;rounded=1;align=center;" parent="HlYiuG5ErMYe60urcanL-1" vertex="1">
          <mxGeometry x="10" y="530" width="120" height="40" as="geometry" />
        </mxCell>
        <mxCell id="8E0tDDwB25otEQbExK8r-13" value="&lt;div style=&quot;text-align: justify;&quot;&gt;&lt;span style=&quot;font-size: 12px;&quot;&gt;Daily Load (GB)&lt;/span&gt;&lt;/div&gt;" style="ellipse;whiteSpace=wrap;html=1;fontSize=24;rounded=1;align=center;" parent="HlYiuG5ErMYe60urcanL-1" vertex="1">
          <mxGeometry x="150" y="530" width="120" height="40" as="geometry" />
        </mxCell>
        <mxCell id="8E0tDDwB25otEQbExK8r-17" value="Service Availability" style="ellipse;whiteSpace=wrap;html=1;" parent="HlYiuG5ErMYe60urcanL-1" vertex="1">
          <mxGeometry x="295" y="135" width="120" height="40" as="geometry" />
        </mxCell>
        <mxCell id="8E0tDDwB25otEQbExK8r-18" value="PII Detection &amp;amp; Replacement" style="ellipse;whiteSpace=wrap;html=1;" parent="HlYiuG5ErMYe60urcanL-1" vertex="1">
          <mxGeometry x="450" y="135" width="120" height="40" as="geometry" />
        </mxCell>
        <mxCell id="NDDdZMIxpwJZDlqLzk2c-0" value="&lt;font style=&quot;font-size: 24px;&quot;&gt;&lt;u&gt;Non-Functional Requirements: PII/Sensitive Data Scrub&lt;/u&gt;&lt;/font&gt;" style="text;html=1;strokeColor=none;fillColor=none;align=center;verticalAlign=middle;whiteSpace=wrap;rounded=0;fontSize=16;" vertex="1" parent="HlYiuG5ErMYe60urcanL-1">
          <mxGeometry x="125" y="20" width="600" height="30" as="geometry" />
        </mxCell>
      </root>
    </mxGraphModel>
  </diagram>
  <diagram name="Concept. Arch." id="U5oCiPYMo4C-_qP5Ro2j">
    <mxGraphModel dx="1581" dy="1060" grid="1" gridSize="10" guides="1" tooltips="1" connect="1" arrows="1" fold="1" page="1" pageScale="1" pageWidth="850" pageHeight="1100" math="0" shadow="0">
      <root>
        <mxCell id="vECQrhH6S6L_jKQsrYaC-0" />
        <mxCell id="vECQrhH6S6L_jKQsrYaC-1" parent="vECQrhH6S6L_jKQsrYaC-0" />
        <mxCell id="WoJVJzB--j_4nprUgPEj-0" value="" style="rounded=1;whiteSpace=wrap;html=1;shadow=0;labelBorderColor=none;strokeColor=default;fontSize=18;fontColor=#000000;" parent="vECQrhH6S6L_jKQsrYaC-1" vertex="1">
          <mxGeometry x="1074" y="162" width="201" height="308" as="geometry" />
        </mxCell>
        <mxCell id="WoJVJzB--j_4nprUgPEj-1" value="" style="rounded=1;whiteSpace=wrap;html=1;shadow=0;labelBorderColor=none;strokeColor=default;fontSize=18;fontColor=#000000;" parent="vECQrhH6S6L_jKQsrYaC-1" vertex="1">
          <mxGeometry x="654" y="474" width="410" height="246" as="geometry" />
        </mxCell>
        <mxCell id="WoJVJzB--j_4nprUgPEj-2" value="" style="rounded=1;whiteSpace=wrap;html=1;shadow=0;labelBorderColor=none;strokeColor=default;fontSize=18;fontColor=#000000;" parent="vECQrhH6S6L_jKQsrYaC-1" vertex="1">
          <mxGeometry x="654" y="160" width="410" height="304" as="geometry" />
        </mxCell>
        <mxCell id="WoJVJzB--j_4nprUgPEj-3" value="" style="rounded=1;whiteSpace=wrap;html=1;shadow=0;labelBorderColor=none;strokeColor=default;fontSize=18;fontColor=#000000;" parent="vECQrhH6S6L_jKQsrYaC-1" vertex="1">
          <mxGeometry x="443" y="162" width="201" height="558" as="geometry" />
        </mxCell>
        <mxCell id="vECQrhH6S6L_jKQsrYaC-15" value="Data Sets" style="swimlane;whiteSpace=wrap;html=1;shadow=0;strokeColor=default;fontSize=18;startSize=40;" parent="vECQrhH6S6L_jKQsrYaC-1" vertex="1">
          <mxGeometry x="80" y="80" width="180" height="440" as="geometry" />
        </mxCell>
        <mxCell id="vECQrhH6S6L_jKQsrYaC-16" value="&lt;font color=&quot;#9933ff&quot;&gt;Call Logs&lt;/font&gt; &amp;amp; Operations Data" style="rounded=1;whiteSpace=wrap;html=1;shadow=0;strokeColor=default;fontSize=18;" parent="vECQrhH6S6L_jKQsrYaC-15" vertex="1">
          <mxGeometry x="18" y="60" width="140" height="60" as="geometry" />
        </mxCell>
        <mxCell id="vECQrhH6S6L_jKQsrYaC-17" value="&lt;font color=&quot;#9933ff&quot;&gt;Emails&lt;/font&gt; &amp;amp; Operations Data" style="rounded=1;whiteSpace=wrap;html=1;shadow=0;strokeColor=default;fontSize=18;" parent="vECQrhH6S6L_jKQsrYaC-15" vertex="1">
          <mxGeometry x="18" y="140" width="140" height="60" as="geometry" />
        </mxCell>
        <mxCell id="vECQrhH6S6L_jKQsrYaC-18" value="&lt;font color=&quot;#9933ff&quot;&gt;&lt;span style=&quot;caret-color: rgb(153, 51, 255);&quot;&gt;...&lt;/span&gt;&lt;/font&gt;" style="rounded=1;whiteSpace=wrap;html=1;shadow=0;strokeColor=default;fontSize=18;" parent="vECQrhH6S6L_jKQsrYaC-15" vertex="1">
          <mxGeometry x="18" y="220" width="140" height="60" as="geometry" />
        </mxCell>
        <mxCell id="vECQrhH6S6L_jKQsrYaC-19" value="&lt;font color=&quot;#9933ff&quot;&gt;PII/Sensitive&lt;/font&gt; &amp;amp;&lt;br&gt;Operations Data" style="rounded=1;whiteSpace=wrap;html=1;shadow=0;strokeColor=default;fontSize=18;" parent="vECQrhH6S6L_jKQsrYaC-15" vertex="1">
          <mxGeometry x="20" y="300" width="140" height="60" as="geometry" />
        </mxCell>
        <mxCell id="b8GQMUXerxtxGoJxNrRM-4" value="&lt;font color=&quot;#000000&quot;&gt;In-house&lt;br&gt;BA&lt;/font&gt;" style="shape=umlActor;verticalLabelPosition=bottom;verticalAlign=top;html=1;outlineConnect=0;shadow=0;labelBorderColor=none;strokeColor=default;fontSize=18;fontColor=#9933FF;" parent="vECQrhH6S6L_jKQsrYaC-1" vertex="1">
          <mxGeometry x="140" y="560" width="30" height="60" as="geometry" />
        </mxCell>
        <mxCell id="Kq4Q_HxL_EDb6amXsnjC-2" value="&lt;b&gt;ETL&lt;/b&gt;" style="rounded=1;whiteSpace=wrap;html=1;shadow=0;labelBorderColor=none;strokeColor=default;fontSize=18;fontColor=#000000;" parent="vECQrhH6S6L_jKQsrYaC-1" vertex="1">
          <mxGeometry x="300" y="160" width="80" height="360" as="geometry" />
        </mxCell>
        <mxCell id="Ud3gxGJe9PFryMNVVnPc-3" value="" style="endArrow=classic;html=1;rounded=0;fontSize=18;fontColor=#000000;exitX=0.5;exitY=0;exitDx=0;exitDy=0;entryX=0.5;entryY=0;entryDx=0;entryDy=0;entryPerimeter=0;strokeWidth=3;" parent="vECQrhH6S6L_jKQsrYaC-1" source="Kq4Q_HxL_EDb6amXsnjC-2" target="5A2WZeXUgpdjqzR-YLDR-2" edge="1">
          <mxGeometry width="50" height="50" relative="1" as="geometry">
            <mxPoint x="540" y="370" as="sourcePoint" />
            <mxPoint x="1174.5" y="246" as="targetPoint" />
            <Array as="points">
              <mxPoint x="340" y="120" />
              <mxPoint x="1175" y="120" />
            </Array>
          </mxGeometry>
        </mxCell>
        <mxCell id="Ud3gxGJe9PFryMNVVnPc-4" value="Operations Data" style="text;html=1;strokeColor=none;fillColor=none;align=center;verticalAlign=middle;whiteSpace=wrap;rounded=0;shadow=0;labelBorderColor=none;fontSize=18;fontColor=#000000;" parent="vECQrhH6S6L_jKQsrYaC-1" vertex="1">
          <mxGeometry x="340" y="90" width="190" height="30" as="geometry" />
        </mxCell>
        <mxCell id="Ud3gxGJe9PFryMNVVnPc-5" value="" style="endArrow=classic;html=1;rounded=0;fontSize=18;fontColor=#000000;entryX=0;entryY=0.5;entryDx=0;entryDy=0;strokeColor=#9933FF;strokeWidth=3;" parent="vECQrhH6S6L_jKQsrYaC-1" edge="1">
          <mxGeometry width="50" height="50" relative="1" as="geometry">
            <mxPoint x="380" y="310" as="sourcePoint" />
            <mxPoint x="440" y="310" as="targetPoint" />
          </mxGeometry>
        </mxCell>
        <mxCell id="Ud3gxGJe9PFryMNVVnPc-6" value="&lt;b&gt;Debug,&lt;br&gt;Reports,&lt;br&gt;...&lt;/b&gt;" style="rounded=1;whiteSpace=wrap;html=1;shadow=0;labelBorderColor=none;strokeColor=default;fontSize=18;fontColor=#000000;" parent="vECQrhH6S6L_jKQsrYaC-1" vertex="1">
          <mxGeometry x="300" y="560" width="80" height="160" as="geometry" />
        </mxCell>
        <mxCell id="WoJVJzB--j_4nprUgPEj-4" value="&lt;b&gt;Secure, Highly Available Interfaces&lt;/b&gt;" style="text;html=1;strokeColor=none;fillColor=none;align=center;verticalAlign=middle;whiteSpace=wrap;rounded=0;shadow=0;labelBorderColor=none;fontSize=18;fontColor=#000000;" parent="vECQrhH6S6L_jKQsrYaC-1" vertex="1">
          <mxGeometry x="448.5" y="200" width="190" height="30" as="geometry" />
        </mxCell>
        <mxCell id="WoJVJzB--j_4nprUgPEj-5" value="&lt;b&gt;Scrub Data&lt;/b&gt;" style="text;html=1;strokeColor=none;fillColor=none;align=center;verticalAlign=middle;whiteSpace=wrap;rounded=0;shadow=0;labelBorderColor=none;fontSize=18;fontColor=#000000;" parent="vECQrhH6S6L_jKQsrYaC-1" vertex="1">
          <mxGeometry x="764" y="184" width="190" height="30" as="geometry" />
        </mxCell>
        <mxCell id="HjNYrEMp7qiQDzvC1vbF-0" value="&lt;b&gt;Revert Data&lt;/b&gt;" style="text;html=1;strokeColor=none;fillColor=none;align=center;verticalAlign=middle;whiteSpace=wrap;rounded=0;shadow=0;labelBorderColor=none;fontSize=18;fontColor=#000000;" parent="vECQrhH6S6L_jKQsrYaC-1" vertex="1">
          <mxGeometry x="764" y="668" width="190" height="30" as="geometry" />
        </mxCell>
        <mxCell id="sCKVypPQqQM7mhlRXmda-0" value="Batch" style="rounded=1;whiteSpace=wrap;html=1;shadow=0;labelBorderColor=none;strokeColor=default;fontSize=18;fontColor=#000000;" parent="vECQrhH6S6L_jKQsrYaC-1" vertex="1">
          <mxGeometry x="483.5" y="480" width="120" height="60" as="geometry" />
        </mxCell>
        <mxCell id="sCKVypPQqQM7mhlRXmda-1" value="Request / Response" style="rounded=1;whiteSpace=wrap;html=1;shadow=0;labelBorderColor=none;strokeColor=default;fontSize=18;fontColor=#000000;" parent="vECQrhH6S6L_jKQsrYaC-1" vertex="1">
          <mxGeometry x="483.5" y="360" width="120" height="60" as="geometry" />
        </mxCell>
        <mxCell id="NZa2NsZIj8Kjokl1UHhB-0" value="Retrieve Original Data" style="rounded=1;whiteSpace=wrap;html=1;shadow=0;labelBorderColor=none;strokeColor=default;fontSize=18;fontColor=#000000;" parent="vECQrhH6S6L_jKQsrYaC-1" vertex="1">
          <mxGeometry x="799" y="591" width="120" height="60" as="geometry" />
        </mxCell>
        <mxCell id="NZa2NsZIj8Kjokl1UHhB-1" value="Apply PII/Sensitive" style="rounded=1;whiteSpace=wrap;html=1;shadow=0;labelBorderColor=none;strokeColor=default;fontSize=18;fontColor=#000000;" parent="vECQrhH6S6L_jKQsrYaC-1" vertex="1">
          <mxGeometry x="920" y="510" width="120" height="60" as="geometry" />
        </mxCell>
        <mxCell id="NZa2NsZIj8Kjokl1UHhB-2" value="Validate Revert Key" style="rounded=1;whiteSpace=wrap;html=1;shadow=0;labelBorderColor=none;strokeColor=default;fontSize=18;fontColor=#000000;" parent="vECQrhH6S6L_jKQsrYaC-1" vertex="1">
          <mxGeometry x="679" y="514" width="120" height="60" as="geometry" />
        </mxCell>
        <mxCell id="KcLXabOQIfNbpXTuFnEk-5" value="" style="endArrow=classic;html=1;rounded=0;fontSize=12;fontColor=#009900;strokeColor=#009900;strokeWidth=3;entryX=0.75;entryY=0;entryDx=0;entryDy=0;" parent="vECQrhH6S6L_jKQsrYaC-1" edge="1">
          <mxGeometry width="50" height="50" relative="1" as="geometry">
            <mxPoint x="383" y="591.0001221995926" as="sourcePoint" />
            <mxPoint x="443" y="591" as="targetPoint" />
          </mxGeometry>
        </mxCell>
        <mxCell id="KcLXabOQIfNbpXTuFnEk-6" value="" style="endArrow=classic;html=1;rounded=0;fontSize=18;fontColor=#000000;entryX=0;entryY=0.5;entryDx=0;entryDy=0;strokeColor=#9933FF;strokeWidth=3;" parent="vECQrhH6S6L_jKQsrYaC-1" edge="1">
          <mxGeometry width="50" height="50" relative="1" as="geometry">
            <mxPoint x="679" y="659" as="sourcePoint" />
            <mxPoint x="619" y="660.0000000000001" as="targetPoint" />
          </mxGeometry>
        </mxCell>
        <mxCell id="KcLXabOQIfNbpXTuFnEk-7" value="" style="endArrow=classic;html=1;rounded=0;fontSize=12;fontColor=#009900;strokeColor=#009900;strokeWidth=3;entryX=0.75;entryY=0;entryDx=0;entryDy=0;" parent="vECQrhH6S6L_jKQsrYaC-1" edge="1">
          <mxGeometry width="50" height="50" relative="1" as="geometry">
            <mxPoint x="619" y="593.3301221995927" as="sourcePoint" />
            <mxPoint x="679" y="593.33" as="targetPoint" />
          </mxGeometry>
        </mxCell>
        <mxCell id="KcLXabOQIfNbpXTuFnEk-8" value="" style="endArrow=classic;html=1;rounded=0;fontSize=18;fontColor=#000000;entryX=0;entryY=0.5;entryDx=0;entryDy=0;strokeColor=#9933FF;strokeWidth=3;" parent="vECQrhH6S6L_jKQsrYaC-1" edge="1">
          <mxGeometry width="50" height="50" relative="1" as="geometry">
            <mxPoint x="619" y="309.33" as="sourcePoint" />
            <mxPoint x="679" y="309.33" as="targetPoint" />
          </mxGeometry>
        </mxCell>
        <mxCell id="WKvfVJkwNvhVaHAh-ljj-0" value="Detect PII/Sensitive" style="rounded=1;whiteSpace=wrap;html=1;shadow=0;labelBorderColor=none;strokeColor=default;fontSize=18;fontColor=#000000;" parent="vECQrhH6S6L_jKQsrYaC-1" vertex="1">
          <mxGeometry x="794" y="231" width="120" height="60" as="geometry" />
        </mxCell>
        <mxCell id="WKvfVJkwNvhVaHAh-ljj-1" value="Replace PII/Sensitive" style="rounded=1;whiteSpace=wrap;html=1;shadow=0;labelBorderColor=none;strokeColor=default;fontSize=18;fontColor=#000000;" parent="vECQrhH6S6L_jKQsrYaC-1" vertex="1">
          <mxGeometry x="922.5" y="374" width="120" height="60" as="geometry" />
        </mxCell>
        <mxCell id="WKvfVJkwNvhVaHAh-ljj-2" value="Store Replacements" style="rounded=1;whiteSpace=wrap;html=1;shadow=0;labelBorderColor=none;strokeColor=default;fontSize=18;fontColor=#000000;" parent="vECQrhH6S6L_jKQsrYaC-1" vertex="1">
          <mxGeometry x="690" y="374" width="120" height="60" as="geometry" />
        </mxCell>
        <mxCell id="Jbev7n5TZAjuA62yBq81-5" value="" style="group" vertex="1" connectable="0" parent="vECQrhH6S6L_jKQsrYaC-1">
          <mxGeometry x="73" y="690" width="180" height="180" as="geometry" />
        </mxCell>
        <mxCell id="Jbev7n5TZAjuA62yBq81-3" value="" style="whiteSpace=wrap;html=1;aspect=fixed;strokeColor=#000000;fontSize=12;fontColor=#000000;" vertex="1" parent="Jbev7n5TZAjuA62yBq81-5">
          <mxGeometry width="180" height="180" as="geometry" />
        </mxCell>
        <mxCell id="Ud3gxGJe9PFryMNVVnPc-7" value="&lt;font color=&quot;#9933ff&quot;&gt;PII/Sensitive Data&lt;/font&gt;" style="text;html=1;strokeColor=none;fillColor=none;align=center;verticalAlign=middle;whiteSpace=wrap;rounded=0;shadow=0;labelBorderColor=none;fontSize=18;fontColor=#000000;" parent="Jbev7n5TZAjuA62yBq81-5" vertex="1">
          <mxGeometry x="7" y="22" width="160" height="30" as="geometry" />
        </mxCell>
        <mxCell id="5plJ2uATQPgv5vO-h2zq-1" value="&lt;font color=&quot;#009900&quot;&gt;Scrubbed Data&lt;/font&gt;" style="text;html=1;strokeColor=none;fillColor=none;align=center;verticalAlign=middle;whiteSpace=wrap;rounded=0;shadow=0;labelBorderColor=none;fontSize=18;fontColor=#000000;" parent="Jbev7n5TZAjuA62yBq81-5" vertex="1">
          <mxGeometry x="7" y="88" width="160" height="30" as="geometry" />
        </mxCell>
        <mxCell id="KcLXabOQIfNbpXTuFnEk-3" value="" style="endArrow=classic;html=1;rounded=0;fontSize=18;fontColor=#000000;strokeColor=#9933FF;strokeWidth=3;" parent="Jbev7n5TZAjuA62yBq81-5" edge="1">
          <mxGeometry width="50" height="50" relative="1" as="geometry">
            <mxPoint x="47" y="15.5" as="sourcePoint" />
            <mxPoint x="127" y="16" as="targetPoint" />
          </mxGeometry>
        </mxCell>
        <mxCell id="KcLXabOQIfNbpXTuFnEk-4" value="" style="endArrow=classic;html=1;rounded=0;fontSize=12;fontColor=#009900;strokeColor=#009900;strokeWidth=3;" parent="Jbev7n5TZAjuA62yBq81-5" edge="1">
          <mxGeometry width="50" height="50" relative="1" as="geometry">
            <mxPoint x="47" y="78" as="sourcePoint" />
            <mxPoint x="127" y="78" as="targetPoint" />
          </mxGeometry>
        </mxCell>
        <mxCell id="Jbev7n5TZAjuA62yBq81-1" value="&lt;font&gt;Ops Data&lt;/font&gt;" style="text;html=1;strokeColor=none;fillColor=none;align=center;verticalAlign=middle;whiteSpace=wrap;rounded=0;shadow=0;labelBorderColor=none;fontSize=18;fontColor=#000000;" vertex="1" parent="Jbev7n5TZAjuA62yBq81-5">
          <mxGeometry x="7" y="142" width="160" height="30" as="geometry" />
        </mxCell>
        <mxCell id="Jbev7n5TZAjuA62yBq81-2" value="" style="endArrow=classic;html=1;rounded=0;fontSize=12;fontColor=#009900;strokeColor=#000000;strokeWidth=3;" edge="1" parent="Jbev7n5TZAjuA62yBq81-5">
          <mxGeometry width="50" height="50" relative="1" as="geometry">
            <mxPoint x="47" y="132" as="sourcePoint" />
            <mxPoint x="127" y="132" as="targetPoint" />
          </mxGeometry>
        </mxCell>
        <mxCell id="Jbev7n5TZAjuA62yBq81-8" value="" style="endArrow=classic;html=1;rounded=0;fontSize=18;fontColor=#000000;entryX=1.038;entryY=0.619;entryDx=0;entryDy=0;strokeColor=#9933FF;strokeWidth=3;entryPerimeter=0;" edge="1" parent="vECQrhH6S6L_jKQsrYaC-1" target="Ud3gxGJe9PFryMNVVnPc-6">
          <mxGeometry width="50" height="50" relative="1" as="geometry">
            <mxPoint x="440" y="660" as="sourcePoint" />
            <mxPoint x="390" y="661" as="targetPoint" />
          </mxGeometry>
        </mxCell>
        <mxCell id="Jbev7n5TZAjuA62yBq81-9" value="" style="endArrow=classic;html=1;rounded=0;fontSize=12;fontColor=#009900;strokeColor=#009900;strokeWidth=3;entryX=0.75;entryY=0;entryDx=0;entryDy=0;" edge="1" parent="vECQrhH6S6L_jKQsrYaC-1">
          <mxGeometry width="50" height="50" relative="1" as="geometry">
            <mxPoint x="1038" y="309.5001221995926" as="sourcePoint" />
            <mxPoint x="1098" y="309.5" as="targetPoint" />
          </mxGeometry>
        </mxCell>
        <mxCell id="5A2WZeXUgpdjqzR-YLDR-2" value="" style="shape=cylinder3;whiteSpace=wrap;html=1;boundedLbl=1;backgroundOutline=1;size=15;shadow=0;strokeColor=#82b366;fontSize=18;fillColor=#d5e8d4;" vertex="1" parent="vECQrhH6S6L_jKQsrYaC-1">
          <mxGeometry x="1105.5" y="199" width="140" height="140" as="geometry" />
        </mxCell>
        <mxCell id="5A2WZeXUgpdjqzR-YLDR-3" value="&lt;font color=&quot;#009900&quot;&gt;Scrubbed&lt;/font&gt;&lt;br&gt;&amp;amp; Ops Data" style="text;html=1;strokeColor=none;fillColor=none;align=center;verticalAlign=middle;whiteSpace=wrap;rounded=0;shadow=0;labelBorderColor=none;fontSize=18;fontColor=#000000;" vertex="1" parent="vECQrhH6S6L_jKQsrYaC-1">
          <mxGeometry x="1114.5" y="268" width="140" height="30" as="geometry" />
        </mxCell>
        <mxCell id="ZVf5o5FCNgTjF1t6p-4r-0" value="&lt;b&gt;Analytics&lt;br&gt;Data Store&lt;/b&gt;" style="text;html=1;strokeColor=none;fillColor=none;align=center;verticalAlign=middle;whiteSpace=wrap;rounded=0;shadow=0;labelBorderColor=none;fontSize=18;fontColor=#000000;" vertex="1" parent="vECQrhH6S6L_jKQsrYaC-1">
          <mxGeometry x="1115.5" y="420" width="120" height="30" as="geometry" />
        </mxCell>
        <mxCell id="wKE5nm-SS70sGp9_8txt-0" value="&lt;font style=&quot;font-size: 24px;&quot;&gt;&lt;u&gt;Conceptual Architecture: PII/Sensitive Data Scrub&lt;/u&gt;&lt;/font&gt;" style="text;html=1;strokeColor=none;fillColor=none;align=center;verticalAlign=middle;whiteSpace=wrap;rounded=0;fontSize=16;" vertex="1" parent="vECQrhH6S6L_jKQsrYaC-1">
          <mxGeometry x="454" y="10" width="570" height="30" as="geometry" />
        </mxCell>
      </root>
    </mxGraphModel>
  </diagram>
  <diagram name="Sol. Arch. 01" id="td0C2RuFicBgF1NebQFg">
    <mxGraphModel dx="1581" dy="1060" grid="1" gridSize="10" guides="1" tooltips="1" connect="1" arrows="1" fold="1" page="1" pageScale="1" pageWidth="850" pageHeight="1100" math="0" shadow="0">
      <root>
        <mxCell id="igMr1RUf05kZ0-7QOXPA-0" />
        <mxCell id="igMr1RUf05kZ0-7QOXPA-1" parent="igMr1RUf05kZ0-7QOXPA-0" />
        <mxCell id="igMr1RUf05kZ0-7QOXPA-2" value="" style="rounded=1;whiteSpace=wrap;html=1;shadow=0;labelBorderColor=none;strokeColor=default;fontSize=18;fontColor=#000000;" vertex="1" parent="igMr1RUf05kZ0-7QOXPA-1">
          <mxGeometry x="1074" y="162" width="201" height="308" as="geometry" />
        </mxCell>
        <mxCell id="igMr1RUf05kZ0-7QOXPA-3" value="" style="rounded=1;whiteSpace=wrap;html=1;shadow=0;labelBorderColor=none;strokeColor=default;fontSize=18;fontColor=#000000;" vertex="1" parent="igMr1RUf05kZ0-7QOXPA-1">
          <mxGeometry x="654" y="474" width="410" height="246" as="geometry" />
        </mxCell>
        <mxCell id="igMr1RUf05kZ0-7QOXPA-4" value="" style="rounded=1;whiteSpace=wrap;html=1;shadow=0;labelBorderColor=none;strokeColor=default;fontSize=18;fontColor=#000000;" vertex="1" parent="igMr1RUf05kZ0-7QOXPA-1">
          <mxGeometry x="654" y="160" width="410" height="304" as="geometry" />
        </mxCell>
        <mxCell id="igMr1RUf05kZ0-7QOXPA-5" value="" style="rounded=1;whiteSpace=wrap;html=1;shadow=0;labelBorderColor=none;strokeColor=default;fontSize=18;fontColor=#000000;" vertex="1" parent="igMr1RUf05kZ0-7QOXPA-1">
          <mxGeometry x="443" y="162" width="201" height="558" as="geometry" />
        </mxCell>
        <mxCell id="igMr1RUf05kZ0-7QOXPA-6" value="Data Sets" style="swimlane;whiteSpace=wrap;html=1;shadow=0;strokeColor=default;fontSize=18;startSize=40;" vertex="1" parent="igMr1RUf05kZ0-7QOXPA-1">
          <mxGeometry x="80" y="80" width="180" height="440" as="geometry" />
        </mxCell>
        <mxCell id="igMr1RUf05kZ0-7QOXPA-7" value="&lt;font color=&quot;#9933ff&quot;&gt;Call Logs&lt;/font&gt; &amp;amp; Operations Data" style="rounded=1;whiteSpace=wrap;html=1;shadow=0;strokeColor=default;fontSize=18;" vertex="1" parent="igMr1RUf05kZ0-7QOXPA-6">
          <mxGeometry x="18" y="60" width="140" height="60" as="geometry" />
        </mxCell>
        <mxCell id="igMr1RUf05kZ0-7QOXPA-8" value="&lt;font color=&quot;#9933ff&quot;&gt;Emails&lt;/font&gt; &amp;amp; Operations Data" style="rounded=1;whiteSpace=wrap;html=1;shadow=0;strokeColor=default;fontSize=18;" vertex="1" parent="igMr1RUf05kZ0-7QOXPA-6">
          <mxGeometry x="18" y="140" width="140" height="60" as="geometry" />
        </mxCell>
        <mxCell id="igMr1RUf05kZ0-7QOXPA-9" value="&lt;font color=&quot;#9933ff&quot;&gt;&lt;span style=&quot;caret-color: rgb(153, 51, 255);&quot;&gt;...&lt;/span&gt;&lt;/font&gt;" style="rounded=1;whiteSpace=wrap;html=1;shadow=0;strokeColor=default;fontSize=18;" vertex="1" parent="igMr1RUf05kZ0-7QOXPA-6">
          <mxGeometry x="18" y="220" width="140" height="60" as="geometry" />
        </mxCell>
        <mxCell id="igMr1RUf05kZ0-7QOXPA-10" value="&lt;font color=&quot;#9933ff&quot;&gt;PII/Sensitive&lt;/font&gt; &amp;amp;&lt;br&gt;Operations Data" style="rounded=1;whiteSpace=wrap;html=1;shadow=0;strokeColor=default;fontSize=18;" vertex="1" parent="igMr1RUf05kZ0-7QOXPA-6">
          <mxGeometry x="20" y="300" width="140" height="60" as="geometry" />
        </mxCell>
        <mxCell id="igMr1RUf05kZ0-7QOXPA-11" value="&lt;font color=&quot;#000000&quot;&gt;In-house&lt;br&gt;BA&lt;/font&gt;" style="shape=umlActor;verticalLabelPosition=bottom;verticalAlign=top;html=1;outlineConnect=0;shadow=0;labelBorderColor=none;strokeColor=default;fontSize=18;fontColor=#9933FF;" vertex="1" parent="igMr1RUf05kZ0-7QOXPA-1">
          <mxGeometry x="140" y="560" width="30" height="60" as="geometry" />
        </mxCell>
        <mxCell id="igMr1RUf05kZ0-7QOXPA-13" value="&lt;b&gt;Analytics&lt;br&gt;Data Store&lt;/b&gt;" style="text;html=1;strokeColor=none;fillColor=none;align=center;verticalAlign=middle;whiteSpace=wrap;rounded=0;shadow=0;labelBorderColor=none;fontSize=18;fontColor=#000000;" vertex="1" parent="igMr1RUf05kZ0-7QOXPA-1">
          <mxGeometry x="1115.5" y="420" width="120" height="30" as="geometry" />
        </mxCell>
        <mxCell id="igMr1RUf05kZ0-7QOXPA-15" value="&lt;b&gt;ETL&lt;/b&gt;" style="rounded=1;whiteSpace=wrap;html=1;shadow=0;labelBorderColor=none;strokeColor=default;fontSize=18;fontColor=#000000;" vertex="1" parent="igMr1RUf05kZ0-7QOXPA-1">
          <mxGeometry x="300" y="160" width="80" height="360" as="geometry" />
        </mxCell>
        <mxCell id="igMr1RUf05kZ0-7QOXPA-16" value="" style="endArrow=classic;html=1;rounded=0;fontSize=18;fontColor=#000000;exitX=0.5;exitY=0;exitDx=0;exitDy=0;entryX=0.5;entryY=0;entryDx=0;entryDy=0;entryPerimeter=0;strokeWidth=3;" edge="1" parent="igMr1RUf05kZ0-7QOXPA-1" source="igMr1RUf05kZ0-7QOXPA-15" target="PwC2oKchE6M9OovBp2Xm-0">
          <mxGeometry width="50" height="50" relative="1" as="geometry">
            <mxPoint x="540" y="370" as="sourcePoint" />
            <mxPoint x="1174.5" y="207" as="targetPoint" />
            <Array as="points">
              <mxPoint x="340" y="120" />
              <mxPoint x="1175" y="120" />
            </Array>
          </mxGeometry>
        </mxCell>
        <mxCell id="igMr1RUf05kZ0-7QOXPA-17" value="Operations Data" style="text;html=1;strokeColor=none;fillColor=none;align=center;verticalAlign=middle;whiteSpace=wrap;rounded=0;shadow=0;labelBorderColor=none;fontSize=18;fontColor=#000000;" vertex="1" parent="igMr1RUf05kZ0-7QOXPA-1">
          <mxGeometry x="340" y="90" width="190" height="30" as="geometry" />
        </mxCell>
        <mxCell id="igMr1RUf05kZ0-7QOXPA-18" value="" style="endArrow=classic;html=1;rounded=0;fontSize=18;fontColor=#000000;entryX=0;entryY=0.5;entryDx=0;entryDy=0;strokeColor=#9933FF;strokeWidth=3;" edge="1" parent="igMr1RUf05kZ0-7QOXPA-1">
          <mxGeometry width="50" height="50" relative="1" as="geometry">
            <mxPoint x="380" y="310" as="sourcePoint" />
            <mxPoint x="440" y="310" as="targetPoint" />
          </mxGeometry>
        </mxCell>
        <mxCell id="igMr1RUf05kZ0-7QOXPA-19" value="&lt;b&gt;Debug,&lt;br&gt;Reports,&lt;br&gt;...&lt;/b&gt;" style="rounded=1;whiteSpace=wrap;html=1;shadow=0;labelBorderColor=none;strokeColor=default;fontSize=18;fontColor=#000000;" vertex="1" parent="igMr1RUf05kZ0-7QOXPA-1">
          <mxGeometry x="300" y="560" width="80" height="160" as="geometry" />
        </mxCell>
        <mxCell id="igMr1RUf05kZ0-7QOXPA-20" value="&lt;b&gt;Secure, Highly Available Interfaces&lt;/b&gt;" style="text;html=1;strokeColor=none;fillColor=none;align=center;verticalAlign=middle;whiteSpace=wrap;rounded=0;shadow=0;labelBorderColor=none;fontSize=18;fontColor=#000000;" vertex="1" parent="igMr1RUf05kZ0-7QOXPA-1">
          <mxGeometry x="448.5" y="200" width="190" height="30" as="geometry" />
        </mxCell>
        <mxCell id="igMr1RUf05kZ0-7QOXPA-21" value="&lt;b&gt;Scrub Data&lt;/b&gt;" style="text;html=1;strokeColor=none;fillColor=none;align=center;verticalAlign=middle;whiteSpace=wrap;rounded=0;shadow=0;labelBorderColor=none;fontSize=18;fontColor=#000000;" vertex="1" parent="igMr1RUf05kZ0-7QOXPA-1">
          <mxGeometry x="764" y="184" width="190" height="30" as="geometry" />
        </mxCell>
        <mxCell id="igMr1RUf05kZ0-7QOXPA-22" value="&lt;b&gt;Revert Data&lt;/b&gt;" style="text;html=1;strokeColor=none;fillColor=none;align=center;verticalAlign=middle;whiteSpace=wrap;rounded=0;shadow=0;labelBorderColor=none;fontSize=18;fontColor=#000000;" vertex="1" parent="igMr1RUf05kZ0-7QOXPA-1">
          <mxGeometry x="764" y="668" width="190" height="30" as="geometry" />
        </mxCell>
        <mxCell id="igMr1RUf05kZ0-7QOXPA-23" value="Batch" style="rounded=1;whiteSpace=wrap;html=1;shadow=0;labelBorderColor=none;strokeColor=default;fontSize=18;fontColor=#000000;" vertex="1" parent="igMr1RUf05kZ0-7QOXPA-1">
          <mxGeometry x="483.5" y="480" width="120" height="60" as="geometry" />
        </mxCell>
        <mxCell id="igMr1RUf05kZ0-7QOXPA-24" value="Request / Response" style="rounded=1;whiteSpace=wrap;html=1;shadow=0;labelBorderColor=none;strokeColor=default;fontSize=18;fontColor=#000000;" vertex="1" parent="igMr1RUf05kZ0-7QOXPA-1">
          <mxGeometry x="483.5" y="360" width="120" height="60" as="geometry" />
        </mxCell>
        <mxCell id="igMr1RUf05kZ0-7QOXPA-25" value="Retrieve Original Data" style="rounded=1;whiteSpace=wrap;html=1;shadow=0;labelBorderColor=none;strokeColor=default;fontSize=18;fontColor=#000000;" vertex="1" parent="igMr1RUf05kZ0-7QOXPA-1">
          <mxGeometry x="799" y="591" width="120" height="60" as="geometry" />
        </mxCell>
        <mxCell id="igMr1RUf05kZ0-7QOXPA-26" value="Apply PII/Sensitive" style="rounded=1;whiteSpace=wrap;html=1;shadow=0;labelBorderColor=none;strokeColor=default;fontSize=18;fontColor=#000000;" vertex="1" parent="igMr1RUf05kZ0-7QOXPA-1">
          <mxGeometry x="920" y="510" width="120" height="60" as="geometry" />
        </mxCell>
        <mxCell id="igMr1RUf05kZ0-7QOXPA-27" value="Validate Revert Key" style="rounded=1;whiteSpace=wrap;html=1;shadow=0;labelBorderColor=none;strokeColor=default;fontSize=18;fontColor=#000000;" vertex="1" parent="igMr1RUf05kZ0-7QOXPA-1">
          <mxGeometry x="679" y="514" width="120" height="60" as="geometry" />
        </mxCell>
        <mxCell id="igMr1RUf05kZ0-7QOXPA-28" value="" style="endArrow=classic;html=1;rounded=0;fontSize=12;fontColor=#009900;strokeColor=#009900;strokeWidth=3;entryX=0.75;entryY=0;entryDx=0;entryDy=0;" edge="1" parent="igMr1RUf05kZ0-7QOXPA-1">
          <mxGeometry width="50" height="50" relative="1" as="geometry">
            <mxPoint x="383" y="591.0001221995926" as="sourcePoint" />
            <mxPoint x="443" y="591" as="targetPoint" />
          </mxGeometry>
        </mxCell>
        <mxCell id="igMr1RUf05kZ0-7QOXPA-29" value="" style="endArrow=classic;html=1;rounded=0;fontSize=18;fontColor=#000000;entryX=0;entryY=0.5;entryDx=0;entryDy=0;strokeColor=#9933FF;strokeWidth=3;" edge="1" parent="igMr1RUf05kZ0-7QOXPA-1">
          <mxGeometry width="50" height="50" relative="1" as="geometry">
            <mxPoint x="679" y="659" as="sourcePoint" />
            <mxPoint x="619" y="660.0000000000001" as="targetPoint" />
          </mxGeometry>
        </mxCell>
        <mxCell id="igMr1RUf05kZ0-7QOXPA-30" value="" style="endArrow=classic;html=1;rounded=0;fontSize=12;fontColor=#009900;strokeColor=#009900;strokeWidth=3;entryX=0.75;entryY=0;entryDx=0;entryDy=0;" edge="1" parent="igMr1RUf05kZ0-7QOXPA-1">
          <mxGeometry width="50" height="50" relative="1" as="geometry">
            <mxPoint x="619" y="593.3301221995927" as="sourcePoint" />
            <mxPoint x="679" y="593.33" as="targetPoint" />
          </mxGeometry>
        </mxCell>
        <mxCell id="igMr1RUf05kZ0-7QOXPA-31" value="" style="endArrow=classic;html=1;rounded=0;fontSize=18;fontColor=#000000;entryX=0;entryY=0.5;entryDx=0;entryDy=0;strokeColor=#9933FF;strokeWidth=3;" edge="1" parent="igMr1RUf05kZ0-7QOXPA-1">
          <mxGeometry width="50" height="50" relative="1" as="geometry">
            <mxPoint x="619" y="309.33" as="sourcePoint" />
            <mxPoint x="679" y="309.33" as="targetPoint" />
          </mxGeometry>
        </mxCell>
        <mxCell id="igMr1RUf05kZ0-7QOXPA-33" value="Detect PII/Sensitive" style="rounded=1;whiteSpace=wrap;html=1;shadow=0;labelBorderColor=none;strokeColor=default;fontSize=18;fontColor=#000000;" vertex="1" parent="igMr1RUf05kZ0-7QOXPA-1">
          <mxGeometry x="794" y="231" width="120" height="60" as="geometry" />
        </mxCell>
        <mxCell id="igMr1RUf05kZ0-7QOXPA-34" value="Replace PII/Sensitive" style="rounded=1;whiteSpace=wrap;html=1;shadow=0;labelBorderColor=none;strokeColor=default;fontSize=18;fontColor=#000000;" vertex="1" parent="igMr1RUf05kZ0-7QOXPA-1">
          <mxGeometry x="922.5" y="374" width="120" height="60" as="geometry" />
        </mxCell>
        <mxCell id="igMr1RUf05kZ0-7QOXPA-35" value="Store Replacements" style="rounded=1;whiteSpace=wrap;html=1;shadow=0;labelBorderColor=none;strokeColor=default;fontSize=18;fontColor=#000000;" vertex="1" parent="igMr1RUf05kZ0-7QOXPA-1">
          <mxGeometry x="690" y="374" width="120" height="60" as="geometry" />
        </mxCell>
        <mxCell id="igMr1RUf05kZ0-7QOXPA-36" value="" style="group" vertex="1" connectable="0" parent="igMr1RUf05kZ0-7QOXPA-1">
          <mxGeometry x="73" y="690" width="180" height="180" as="geometry" />
        </mxCell>
        <mxCell id="igMr1RUf05kZ0-7QOXPA-37" value="" style="whiteSpace=wrap;html=1;aspect=fixed;strokeColor=#000000;fontSize=12;fontColor=#000000;" vertex="1" parent="igMr1RUf05kZ0-7QOXPA-36">
          <mxGeometry width="180" height="180" as="geometry" />
        </mxCell>
        <mxCell id="igMr1RUf05kZ0-7QOXPA-38" value="&lt;font color=&quot;#9933ff&quot;&gt;PII/Sensitive Data&lt;/font&gt;" style="text;html=1;strokeColor=none;fillColor=none;align=center;verticalAlign=middle;whiteSpace=wrap;rounded=0;shadow=0;labelBorderColor=none;fontSize=18;fontColor=#000000;" vertex="1" parent="igMr1RUf05kZ0-7QOXPA-36">
          <mxGeometry x="7" y="22" width="160" height="30" as="geometry" />
        </mxCell>
        <mxCell id="igMr1RUf05kZ0-7QOXPA-39" value="&lt;font color=&quot;#009900&quot;&gt;Scrubbed Data&lt;/font&gt;" style="text;html=1;strokeColor=none;fillColor=none;align=center;verticalAlign=middle;whiteSpace=wrap;rounded=0;shadow=0;labelBorderColor=none;fontSize=18;fontColor=#000000;" vertex="1" parent="igMr1RUf05kZ0-7QOXPA-36">
          <mxGeometry x="7" y="88" width="160" height="30" as="geometry" />
        </mxCell>
        <mxCell id="igMr1RUf05kZ0-7QOXPA-40" value="" style="endArrow=classic;html=1;rounded=0;fontSize=18;fontColor=#000000;strokeColor=#9933FF;strokeWidth=3;" edge="1" parent="igMr1RUf05kZ0-7QOXPA-36">
          <mxGeometry width="50" height="50" relative="1" as="geometry">
            <mxPoint x="47" y="15.5" as="sourcePoint" />
            <mxPoint x="127" y="16" as="targetPoint" />
          </mxGeometry>
        </mxCell>
        <mxCell id="igMr1RUf05kZ0-7QOXPA-41" value="" style="endArrow=classic;html=1;rounded=0;fontSize=12;fontColor=#009900;strokeColor=#009900;strokeWidth=3;" edge="1" parent="igMr1RUf05kZ0-7QOXPA-36">
          <mxGeometry width="50" height="50" relative="1" as="geometry">
            <mxPoint x="47" y="78" as="sourcePoint" />
            <mxPoint x="127" y="78" as="targetPoint" />
          </mxGeometry>
        </mxCell>
        <mxCell id="igMr1RUf05kZ0-7QOXPA-42" value="&lt;font&gt;Ops Data&lt;/font&gt;" style="text;html=1;strokeColor=none;fillColor=none;align=center;verticalAlign=middle;whiteSpace=wrap;rounded=0;shadow=0;labelBorderColor=none;fontSize=18;fontColor=#000000;" vertex="1" parent="igMr1RUf05kZ0-7QOXPA-36">
          <mxGeometry x="7" y="142" width="160" height="30" as="geometry" />
        </mxCell>
        <mxCell id="igMr1RUf05kZ0-7QOXPA-43" value="" style="endArrow=classic;html=1;rounded=0;fontSize=12;fontColor=#009900;strokeColor=#000000;strokeWidth=3;" edge="1" parent="igMr1RUf05kZ0-7QOXPA-36">
          <mxGeometry width="50" height="50" relative="1" as="geometry">
            <mxPoint x="47" y="132" as="sourcePoint" />
            <mxPoint x="127" y="132" as="targetPoint" />
          </mxGeometry>
        </mxCell>
        <mxCell id="igMr1RUf05kZ0-7QOXPA-44" value="" style="endArrow=classic;html=1;rounded=0;fontSize=18;fontColor=#000000;entryX=1.038;entryY=0.619;entryDx=0;entryDy=0;strokeColor=#9933FF;strokeWidth=3;entryPerimeter=0;" edge="1" parent="igMr1RUf05kZ0-7QOXPA-1" target="igMr1RUf05kZ0-7QOXPA-19">
          <mxGeometry width="50" height="50" relative="1" as="geometry">
            <mxPoint x="440" y="660" as="sourcePoint" />
            <mxPoint x="390" y="661" as="targetPoint" />
          </mxGeometry>
        </mxCell>
        <mxCell id="igMr1RUf05kZ0-7QOXPA-45" value="" style="endArrow=classic;html=1;rounded=0;fontSize=12;fontColor=#009900;strokeColor=#009900;strokeWidth=3;entryX=0.75;entryY=0;entryDx=0;entryDy=0;" edge="1" parent="igMr1RUf05kZ0-7QOXPA-1">
          <mxGeometry width="50" height="50" relative="1" as="geometry">
            <mxPoint x="1038" y="309.5001221995926" as="sourcePoint" />
            <mxPoint x="1098" y="309.5" as="targetPoint" />
          </mxGeometry>
        </mxCell>
        <mxCell id="g3JYMkCsK0XhHsiGZkkA-0" value="Lambda&lt;br&gt;function" style="outlineConnect=0;fontColor=#232F3E;gradientColor=none;fillColor=#D05C17;strokeColor=none;dashed=0;verticalLabelPosition=bottom;verticalAlign=top;align=center;html=1;fontSize=12;fontStyle=0;aspect=fixed;pointerEvents=1;shape=mxgraph.aws4.lambda_function;labelBackgroundColor=#ffffff;" vertex="1" parent="igMr1RUf05kZ0-7QOXPA-1">
          <mxGeometry x="670" y="176" width="78" height="78" as="geometry" />
        </mxCell>
        <mxCell id="g3JYMkCsK0XhHsiGZkkA-1" value="Amazon&lt;br&gt;DynamoDB&lt;br&gt;" style="outlineConnect=0;fontColor=#232F3E;gradientColor=#4D72F3;gradientDirection=north;fillColor=#3334B9;strokeColor=#ffffff;dashed=0;verticalLabelPosition=bottom;verticalAlign=top;align=center;html=1;fontSize=12;fontStyle=0;aspect=fixed;shape=mxgraph.aws4.resourceIcon;resIcon=mxgraph.aws4.dynamodb;labelBackgroundColor=#ffffff;spacingTop=5;" vertex="1" parent="igMr1RUf05kZ0-7QOXPA-1">
          <mxGeometry x="821.0000000000002" y="433" width="78" height="78" as="geometry" />
        </mxCell>
        <mxCell id="g3JYMkCsK0XhHsiGZkkA-2" value="" style="sketch=0;points=[[0,0,0],[0.25,0,0],[0.5,0,0],[0.75,0,0],[1,0,0],[0,1,0],[0.25,1,0],[0.5,1,0],[0.75,1,0],[1,1,0],[0,0.25,0],[0,0.5,0],[0,0.75,0],[1,0.25,0],[1,0.5,0],[1,0.75,0]];outlineConnect=0;fontColor=#232F3E;gradientColor=#4AB29A;gradientDirection=north;fillColor=#116D5B;strokeColor=#ffffff;dashed=0;verticalLabelPosition=bottom;verticalAlign=top;align=center;html=1;fontSize=12;fontStyle=0;aspect=fixed;shape=mxgraph.aws4.resourceIcon;resIcon=mxgraph.aws4.comprehend;" vertex="1" parent="igMr1RUf05kZ0-7QOXPA-1">
          <mxGeometry x="757" y="264" width="78" height="78" as="geometry" />
        </mxCell>
        <mxCell id="g3JYMkCsK0XhHsiGZkkA-3" value="" style="sketch=0;points=[[0,0,0],[0.25,0,0],[0.5,0,0],[0.75,0,0],[1,0,0],[0,1,0],[0.25,1,0],[0.5,1,0],[0.75,1,0],[1,1,0],[0,0.25,0],[0,0.5,0],[0,0.75,0],[1,0.25,0],[1,0.5,0],[1,0.75,0]];outlineConnect=0;fontColor=#232F3E;gradientColor=#4AB29A;gradientDirection=north;fillColor=#116D5B;strokeColor=#ffffff;dashed=0;verticalLabelPosition=bottom;verticalAlign=top;align=center;html=1;fontSize=12;fontStyle=0;aspect=fixed;shape=mxgraph.aws4.resourceIcon;resIcon=mxgraph.aws4.elastic_inference_2;" vertex="1" parent="igMr1RUf05kZ0-7QOXPA-1">
          <mxGeometry x="877" y="264" width="78" height="78" as="geometry" />
        </mxCell>
        <mxCell id="g3JYMkCsK0XhHsiGZkkA-4" value="Amazon API&lt;br&gt;Gateway&lt;br&gt;" style="outlineConnect=0;fontColor=#232F3E;gradientColor=#945DF2;gradientDirection=north;fillColor=#5A30B5;strokeColor=#ffffff;dashed=0;verticalLabelPosition=bottom;verticalAlign=top;align=center;html=1;fontSize=12;fontStyle=0;aspect=fixed;shape=mxgraph.aws4.resourceIcon;resIcon=mxgraph.aws4.api_gateway;labelBackgroundColor=#ffffff;" vertex="1" parent="igMr1RUf05kZ0-7QOXPA-1">
          <mxGeometry x="541" y="244" width="78" height="78" as="geometry" />
        </mxCell>
        <mxCell id="g3JYMkCsK0XhHsiGZkkA-5" value="" style="sketch=0;points=[[0,0,0],[0.25,0,0],[0.5,0,0],[0.75,0,0],[1,0,0],[0,1,0],[0.25,1,0],[0.5,1,0],[0.75,1,0],[1,1,0],[0,0.25,0],[0,0.5,0],[0,0.75,0],[1,0.25,0],[1,0.5,0],[1,0.75,0]];outlineConnect=0;fontColor=#232F3E;gradientColor=#F54749;gradientDirection=north;fillColor=#C7131F;strokeColor=#ffffff;dashed=0;verticalLabelPosition=bottom;verticalAlign=top;align=center;html=1;fontSize=12;fontStyle=0;aspect=fixed;shape=mxgraph.aws4.resourceIcon;resIcon=mxgraph.aws4.network_firewall;shadow=0;labelBorderColor=none;" vertex="1" parent="igMr1RUf05kZ0-7QOXPA-1">
          <mxGeometry x="463" y="244" width="78" height="78" as="geometry" />
        </mxCell>
        <mxCell id="g3JYMkCsK0XhHsiGZkkA-6" value="" style="sketch=0;points=[[0,0,0],[0.25,0,0],[0.5,0,0],[0.75,0,0],[1,0,0],[0,1,0],[0.25,1,0],[0.5,1,0],[0.75,1,0],[1,1,0],[0,0.25,0],[0,0.5,0],[0,0.75,0],[1,0.25,0],[1,0.5,0],[1,0.75,0]];outlineConnect=0;fontColor=#232F3E;gradientColor=#60A337;gradientDirection=north;fillColor=#277116;strokeColor=#ffffff;dashed=0;verticalLabelPosition=bottom;verticalAlign=top;align=center;html=1;fontSize=12;fontStyle=0;aspect=fixed;shape=mxgraph.aws4.resourceIcon;resIcon=mxgraph.aws4.s3;" vertex="1" parent="igMr1RUf05kZ0-7QOXPA-1">
          <mxGeometry x="509" y="548" width="78" height="78" as="geometry" />
        </mxCell>
        <mxCell id="g3JYMkCsK0XhHsiGZkkA-8" value="Lambda&lt;br&gt;function" style="outlineConnect=0;fontColor=#232F3E;gradientColor=none;fillColor=#D05C17;strokeColor=none;dashed=0;verticalLabelPosition=bottom;verticalAlign=top;align=center;html=1;fontSize=12;fontStyle=0;aspect=fixed;pointerEvents=1;shape=mxgraph.aws4.lambda_function;labelBackgroundColor=#ffffff;" vertex="1" parent="igMr1RUf05kZ0-7QOXPA-1">
          <mxGeometry x="679" y="595" width="78" height="78" as="geometry" />
        </mxCell>
        <mxCell id="g3JYMkCsK0XhHsiGZkkA-9" value="Amazon&lt;br&gt;CloudWatch&lt;br&gt;" style="outlineConnect=0;fontColor=#232F3E;gradientColor=#F34482;gradientDirection=north;fillColor=#BC1356;strokeColor=#ffffff;dashed=0;verticalLabelPosition=bottom;verticalAlign=top;align=center;html=1;fontSize=12;fontStyle=0;aspect=fixed;shape=mxgraph.aws4.resourceIcon;resIcon=mxgraph.aws4.cloudwatch;labelBackgroundColor=#ffffff;" vertex="1" parent="igMr1RUf05kZ0-7QOXPA-1">
          <mxGeometry x="844.5000000000002" y="777" width="78" height="78" as="geometry" />
        </mxCell>
        <mxCell id="g3JYMkCsK0XhHsiGZkkA-10" value="Amazon SageMaker" style="sketch=0;outlineConnect=0;fontColor=#232F3E;gradientColor=none;strokeColor=#ffffff;fillColor=#232F3E;dashed=0;verticalLabelPosition=middle;verticalAlign=bottom;align=center;html=1;whiteSpace=wrap;fontSize=10;fontStyle=1;spacing=3;shape=mxgraph.aws4.productIcon;prIcon=mxgraph.aws4.sagemaker;" vertex="1" parent="igMr1RUf05kZ0-7QOXPA-1">
          <mxGeometry x="1010" y="777" width="80" height="110" as="geometry" />
        </mxCell>
        <mxCell id="g3JYMkCsK0XhHsiGZkkA-11" value="" style="endArrow=none;html=1;rounded=0;" edge="1" parent="igMr1RUf05kZ0-7QOXPA-1">
          <mxGeometry width="50" height="50" relative="1" as="geometry">
            <mxPoint x="280" y="740" as="sourcePoint" />
            <mxPoint x="1280" y="740" as="targetPoint" />
          </mxGeometry>
        </mxCell>
        <mxCell id="mfxVh1Xc15nc6w-KVuWY-0" style="edgeStyle=orthogonalEdgeStyle;rounded=0;orthogonalLoop=1;jettySize=auto;html=1;exitX=0.5;exitY=1;exitDx=0;exitDy=0;strokeColor=#000000;strokeWidth=3;fontSize=15;fontColor=#FFFFFF;" edge="1" parent="igMr1RUf05kZ0-7QOXPA-1" source="igMr1RUf05kZ0-7QOXPA-2" target="igMr1RUf05kZ0-7QOXPA-2">
          <mxGeometry relative="1" as="geometry" />
        </mxCell>
        <mxCell id="PwC2oKchE6M9OovBp2Xm-0" value="" style="shape=cylinder3;whiteSpace=wrap;html=1;boundedLbl=1;backgroundOutline=1;size=15;shadow=0;strokeColor=#82b366;fontSize=18;fillColor=#d5e8d4;" vertex="1" parent="igMr1RUf05kZ0-7QOXPA-1">
          <mxGeometry x="1105.5" y="199" width="140" height="140" as="geometry" />
        </mxCell>
        <mxCell id="PwC2oKchE6M9OovBp2Xm-1" value="&lt;font color=&quot;#009900&quot;&gt;Scrubbed&lt;/font&gt;&lt;br&gt;&amp;amp; Ops Data" style="text;html=1;strokeColor=none;fillColor=none;align=center;verticalAlign=middle;whiteSpace=wrap;rounded=0;shadow=0;labelBorderColor=none;fontSize=18;fontColor=#000000;" vertex="1" parent="igMr1RUf05kZ0-7QOXPA-1">
          <mxGeometry x="1114.5" y="268" width="140" height="30" as="geometry" />
        </mxCell>
        <mxCell id="g3JYMkCsK0XhHsiGZkkA-7" value="" style="sketch=0;points=[[0,0,0],[0.25,0,0],[0.5,0,0],[0.75,0,0],[1,0,0],[0,1,0],[0.25,1,0],[0.5,1,0],[0.75,1,0],[1,1,0],[0,0.25,0],[0,0.5,0],[0,0.75,0],[1,0.25,0],[1,0.5,0],[1,0.75,0]];outlineConnect=0;fontColor=#232F3E;gradientColor=#60A337;gradientDirection=north;fillColor=#277116;strokeColor=#ffffff;dashed=0;verticalLabelPosition=bottom;verticalAlign=top;align=center;html=1;fontSize=12;fontStyle=0;aspect=fixed;shape=mxgraph.aws4.resourceIcon;resIcon=mxgraph.aws4.s3;" vertex="1" parent="igMr1RUf05kZ0-7QOXPA-1">
          <mxGeometry x="1135.5" y="325" width="78" height="78" as="geometry" />
        </mxCell>
        <mxCell id="CNHSHEG4Bw0HjCyYvEl8-0" value="&lt;font style=&quot;font-size: 24px;&quot;&gt;&lt;u&gt;Conceptual Architecture w/ AWS Service Overlay: PII/Sensitive Data Scrub&lt;/u&gt;&lt;/font&gt;" style="text;html=1;strokeColor=none;fillColor=none;align=center;verticalAlign=middle;whiteSpace=wrap;rounded=0;fontSize=16;" vertex="1" parent="igMr1RUf05kZ0-7QOXPA-1">
          <mxGeometry x="280" y="10" width="980" height="30" as="geometry" />
        </mxCell>
      </root>
    </mxGraphModel>
  </diagram>
  <diagram name="Sol. Arch. 02" id="A0GdZsjeY_QBhCujvA_H">
    <mxGraphModel dx="1581" dy="1060" grid="1" gridSize="10" guides="1" tooltips="1" connect="1" arrows="1" fold="1" page="1" pageScale="1" pageWidth="850" pageHeight="1100" math="0" shadow="0">
      <root>
        <mxCell id="TsTDkmpbsu9RTWT3Dw8V-0" />
        <mxCell id="TsTDkmpbsu9RTWT3Dw8V-1" parent="TsTDkmpbsu9RTWT3Dw8V-0" />
        <mxCell id="ayyrG0KPEHRWeejJpmhq-4" value="" style="rounded=0;whiteSpace=wrap;html=1;strokeColor=#000000;fontSize=12;fontColor=#000000;" vertex="1" parent="TsTDkmpbsu9RTWT3Dw8V-1">
          <mxGeometry x="360" y="70" width="950" height="860" as="geometry" />
        </mxCell>
        <mxCell id="-xwCeQ_dSg2gHkQh-zvC-0" value="" style="rounded=1;whiteSpace=wrap;html=1;shadow=0;labelBorderColor=none;strokeColor=default;fontSize=18;fontColor=#000000;dashed=1;" vertex="1" parent="TsTDkmpbsu9RTWT3Dw8V-1">
          <mxGeometry x="443" y="162" width="201" height="558" as="geometry" />
        </mxCell>
        <mxCell id="TsTDkmpbsu9RTWT3Dw8V-2" value="" style="rounded=1;whiteSpace=wrap;html=1;shadow=0;labelBorderColor=none;strokeColor=default;fontSize=18;fontColor=#000000;dashed=1;" vertex="1" parent="TsTDkmpbsu9RTWT3Dw8V-1">
          <mxGeometry x="1074" y="163" width="201" height="307" as="geometry" />
        </mxCell>
        <mxCell id="TsTDkmpbsu9RTWT3Dw8V-3" value="" style="rounded=1;whiteSpace=wrap;html=1;shadow=0;labelBorderColor=none;strokeColor=default;fontSize=18;fontColor=#000000;dashed=1;" vertex="1" parent="TsTDkmpbsu9RTWT3Dw8V-1">
          <mxGeometry x="654" y="474" width="410" height="240" as="geometry" />
        </mxCell>
        <mxCell id="TsTDkmpbsu9RTWT3Dw8V-4" value="" style="rounded=1;whiteSpace=wrap;html=1;shadow=0;labelBorderColor=none;strokeColor=default;fontSize=18;fontColor=#000000;dashed=1;" vertex="1" parent="TsTDkmpbsu9RTWT3Dw8V-1">
          <mxGeometry x="654" y="160" width="410" height="304" as="geometry" />
        </mxCell>
        <mxCell id="TsTDkmpbsu9RTWT3Dw8V-15" value="&lt;b&gt;ETL&lt;/b&gt;" style="rounded=1;whiteSpace=wrap;html=1;shadow=0;labelBorderColor=none;strokeColor=default;fontSize=18;fontColor=#000000;" vertex="1" parent="TsTDkmpbsu9RTWT3Dw8V-1">
          <mxGeometry x="198" y="160" width="80" height="360" as="geometry" />
        </mxCell>
        <mxCell id="TsTDkmpbsu9RTWT3Dw8V-18" value="" style="endArrow=classic;html=1;rounded=0;fontSize=18;fontColor=#000000;strokeColor=#9933FF;strokeWidth=3;" edge="1" parent="TsTDkmpbsu9RTWT3Dw8V-1">
          <mxGeometry width="50" height="50" relative="1" as="geometry">
            <mxPoint x="280" y="310" as="sourcePoint" />
            <mxPoint x="400" y="310" as="targetPoint" />
          </mxGeometry>
        </mxCell>
        <mxCell id="TsTDkmpbsu9RTWT3Dw8V-19" value="&lt;b&gt;Debug,&lt;br&gt;Reports,&lt;br&gt;...&lt;/b&gt;" style="rounded=1;whiteSpace=wrap;html=1;shadow=0;labelBorderColor=none;strokeColor=default;fontSize=18;fontColor=#000000;" vertex="1" parent="TsTDkmpbsu9RTWT3Dw8V-1">
          <mxGeometry x="198" y="560" width="80" height="160" as="geometry" />
        </mxCell>
        <mxCell id="TsTDkmpbsu9RTWT3Dw8V-21" value="&lt;b&gt;Scrub Data&lt;/b&gt;" style="text;html=1;strokeColor=none;fillColor=none;align=center;verticalAlign=middle;whiteSpace=wrap;rounded=0;shadow=0;labelBorderColor=none;fontSize=18;fontColor=#000000;" vertex="1" parent="TsTDkmpbsu9RTWT3Dw8V-1">
          <mxGeometry x="764" y="184" width="190" height="30" as="geometry" />
        </mxCell>
        <mxCell id="TsTDkmpbsu9RTWT3Dw8V-22" value="&lt;b&gt;Revert Data&lt;/b&gt;" style="text;html=1;strokeColor=none;fillColor=none;align=center;verticalAlign=middle;whiteSpace=wrap;rounded=0;shadow=0;labelBorderColor=none;fontSize=18;fontColor=#000000;" vertex="1" parent="TsTDkmpbsu9RTWT3Dw8V-1">
          <mxGeometry x="764" y="668" width="190" height="30" as="geometry" />
        </mxCell>
        <mxCell id="TsTDkmpbsu9RTWT3Dw8V-28" value="" style="endArrow=classic;html=1;rounded=0;fontSize=12;fontColor=#009900;strokeColor=#009900;strokeWidth=3;entryX=0.032;entryY=0.616;entryDx=0;entryDy=0;entryPerimeter=0;" edge="1" parent="TsTDkmpbsu9RTWT3Dw8V-1" target="ayyrG0KPEHRWeejJpmhq-4">
          <mxGeometry width="50" height="50" relative="1" as="geometry">
            <mxPoint x="280" y="600.0001221995926" as="sourcePoint" />
            <mxPoint x="340" y="600" as="targetPoint" />
          </mxGeometry>
        </mxCell>
        <mxCell id="TsTDkmpbsu9RTWT3Dw8V-29" value="" style="endArrow=classic;html=1;rounded=0;fontSize=18;fontColor=#000000;entryX=0;entryY=0.5;entryDx=0;entryDy=0;strokeColor=#9933FF;strokeWidth=3;" edge="1" parent="TsTDkmpbsu9RTWT3Dw8V-1">
          <mxGeometry width="50" height="50" relative="1" as="geometry">
            <mxPoint x="679" y="659" as="sourcePoint" />
            <mxPoint x="619" y="660.0000000000001" as="targetPoint" />
          </mxGeometry>
        </mxCell>
        <mxCell id="TsTDkmpbsu9RTWT3Dw8V-30" value="" style="endArrow=classic;html=1;rounded=0;fontSize=12;fontColor=#009900;strokeColor=#009900;strokeWidth=3;entryX=0.75;entryY=0;entryDx=0;entryDy=0;" edge="1" parent="TsTDkmpbsu9RTWT3Dw8V-1" source="TsTDkmpbsu9RTWT3Dw8V-50">
          <mxGeometry width="50" height="50" relative="1" as="geometry">
            <mxPoint x="619" y="593.3301221995927" as="sourcePoint" />
            <mxPoint x="679" y="593.33" as="targetPoint" />
          </mxGeometry>
        </mxCell>
        <mxCell id="TsTDkmpbsu9RTWT3Dw8V-31" value="" style="endArrow=classic;html=1;rounded=0;fontSize=18;fontColor=#000000;strokeColor=#9933FF;strokeWidth=3;" edge="1" parent="TsTDkmpbsu9RTWT3Dw8V-1" target="TsTDkmpbsu9RTWT3Dw8V-46" source="TsTDkmpbsu9RTWT3Dw8V-50">
          <mxGeometry width="50" height="50" relative="1" as="geometry">
            <mxPoint x="619" y="309.33" as="sourcePoint" />
            <mxPoint x="679" y="309.33" as="targetPoint" />
          </mxGeometry>
        </mxCell>
        <mxCell id="TsTDkmpbsu9RTWT3Dw8V-36" value="" style="group" vertex="1" connectable="0" parent="TsTDkmpbsu9RTWT3Dw8V-1">
          <mxGeometry x="73" y="760" width="180" height="180" as="geometry" />
        </mxCell>
        <mxCell id="TsTDkmpbsu9RTWT3Dw8V-37" value="" style="whiteSpace=wrap;html=1;aspect=fixed;strokeColor=#000000;fontSize=12;fontColor=#000000;" vertex="1" parent="TsTDkmpbsu9RTWT3Dw8V-36">
          <mxGeometry width="180" height="180" as="geometry" />
        </mxCell>
        <mxCell id="TsTDkmpbsu9RTWT3Dw8V-38" value="&lt;font color=&quot;#9933ff&quot;&gt;PII/Sensitive Data&lt;/font&gt;" style="text;html=1;strokeColor=none;fillColor=none;align=center;verticalAlign=middle;whiteSpace=wrap;rounded=0;shadow=0;labelBorderColor=none;fontSize=18;fontColor=#000000;" vertex="1" parent="TsTDkmpbsu9RTWT3Dw8V-36">
          <mxGeometry x="7" y="22" width="160" height="30" as="geometry" />
        </mxCell>
        <mxCell id="TsTDkmpbsu9RTWT3Dw8V-39" value="&lt;font color=&quot;#009900&quot;&gt;Scrubbed Data&lt;/font&gt;" style="text;html=1;strokeColor=none;fillColor=none;align=center;verticalAlign=middle;whiteSpace=wrap;rounded=0;shadow=0;labelBorderColor=none;fontSize=18;fontColor=#000000;" vertex="1" parent="TsTDkmpbsu9RTWT3Dw8V-36">
          <mxGeometry x="7" y="88" width="160" height="30" as="geometry" />
        </mxCell>
        <mxCell id="TsTDkmpbsu9RTWT3Dw8V-40" value="" style="endArrow=classic;html=1;rounded=0;fontSize=18;fontColor=#000000;strokeColor=#9933FF;strokeWidth=3;" edge="1" parent="TsTDkmpbsu9RTWT3Dw8V-36">
          <mxGeometry width="50" height="50" relative="1" as="geometry">
            <mxPoint x="47" y="15.5" as="sourcePoint" />
            <mxPoint x="127" y="16" as="targetPoint" />
          </mxGeometry>
        </mxCell>
        <mxCell id="TsTDkmpbsu9RTWT3Dw8V-41" value="" style="endArrow=classic;html=1;rounded=0;fontSize=12;fontColor=#009900;strokeColor=#009900;strokeWidth=3;" edge="1" parent="TsTDkmpbsu9RTWT3Dw8V-36">
          <mxGeometry width="50" height="50" relative="1" as="geometry">
            <mxPoint x="47" y="78" as="sourcePoint" />
            <mxPoint x="127" y="78" as="targetPoint" />
          </mxGeometry>
        </mxCell>
        <mxCell id="TsTDkmpbsu9RTWT3Dw8V-42" value="&lt;font&gt;Ops Data&lt;/font&gt;" style="text;html=1;strokeColor=none;fillColor=none;align=center;verticalAlign=middle;whiteSpace=wrap;rounded=0;shadow=0;labelBorderColor=none;fontSize=18;fontColor=#000000;" vertex="1" parent="TsTDkmpbsu9RTWT3Dw8V-36">
          <mxGeometry x="7" y="142" width="160" height="30" as="geometry" />
        </mxCell>
        <mxCell id="TsTDkmpbsu9RTWT3Dw8V-43" value="" style="endArrow=classic;html=1;rounded=0;fontSize=12;fontColor=#009900;strokeColor=#000000;strokeWidth=3;" edge="1" parent="TsTDkmpbsu9RTWT3Dw8V-36">
          <mxGeometry width="50" height="50" relative="1" as="geometry">
            <mxPoint x="47" y="132" as="sourcePoint" />
            <mxPoint x="127" y="132" as="targetPoint" />
          </mxGeometry>
        </mxCell>
        <mxCell id="TsTDkmpbsu9RTWT3Dw8V-44" value="" style="endArrow=classic;html=1;rounded=0;fontSize=18;fontColor=#000000;entryX=1.038;entryY=0.619;entryDx=0;entryDy=0;strokeColor=#9933FF;strokeWidth=3;entryPerimeter=0;" edge="1" parent="TsTDkmpbsu9RTWT3Dw8V-1" target="TsTDkmpbsu9RTWT3Dw8V-19">
          <mxGeometry width="50" height="50" relative="1" as="geometry">
            <mxPoint x="390" y="659" as="sourcePoint" />
            <mxPoint x="390" y="661" as="targetPoint" />
          </mxGeometry>
        </mxCell>
        <mxCell id="TsTDkmpbsu9RTWT3Dw8V-46" value="Lambda&lt;br&gt;function" style="outlineConnect=0;fontColor=#232F3E;gradientColor=none;fillColor=#D05C17;strokeColor=none;dashed=0;verticalLabelPosition=bottom;verticalAlign=top;align=center;html=1;fontSize=12;fontStyle=0;aspect=fixed;pointerEvents=1;shape=mxgraph.aws4.lambda_function;labelBackgroundColor=#ffffff;" vertex="1" parent="TsTDkmpbsu9RTWT3Dw8V-1">
          <mxGeometry x="670" y="176" width="78" height="78" as="geometry" />
        </mxCell>
        <mxCell id="TsTDkmpbsu9RTWT3Dw8V-47" value="Amazon&lt;br&gt;DynamoDB&lt;br&gt;" style="outlineConnect=0;fontColor=#232F3E;gradientColor=#4D72F3;gradientDirection=north;fillColor=#3334B9;strokeColor=#ffffff;dashed=0;verticalLabelPosition=bottom;verticalAlign=top;align=center;html=1;fontSize=12;fontStyle=0;aspect=fixed;shape=mxgraph.aws4.resourceIcon;resIcon=mxgraph.aws4.dynamodb;labelBackgroundColor=#ffffff;spacingTop=5;" vertex="1" parent="TsTDkmpbsu9RTWT3Dw8V-1">
          <mxGeometry x="821.0000000000002" y="433" width="78" height="78" as="geometry" />
        </mxCell>
        <mxCell id="TsTDkmpbsu9RTWT3Dw8V-48" value="" style="sketch=0;points=[[0,0,0],[0.25,0,0],[0.5,0,0],[0.75,0,0],[1,0,0],[0,1,0],[0.25,1,0],[0.5,1,0],[0.75,1,0],[1,1,0],[0,0.25,0],[0,0.5,0],[0,0.75,0],[1,0.25,0],[1,0.5,0],[1,0.75,0]];outlineConnect=0;fontColor=#232F3E;gradientColor=#4AB29A;gradientDirection=north;fillColor=#116D5B;strokeColor=#ffffff;dashed=0;verticalLabelPosition=bottom;verticalAlign=top;align=center;html=1;fontSize=12;fontStyle=0;aspect=fixed;shape=mxgraph.aws4.resourceIcon;resIcon=mxgraph.aws4.comprehend;" vertex="1" parent="TsTDkmpbsu9RTWT3Dw8V-1">
          <mxGeometry x="757" y="264" width="78" height="78" as="geometry" />
        </mxCell>
        <mxCell id="TsTDkmpbsu9RTWT3Dw8V-49" value="" style="sketch=0;points=[[0,0,0],[0.25,0,0],[0.5,0,0],[0.75,0,0],[1,0,0],[0,1,0],[0.25,1,0],[0.5,1,0],[0.75,1,0],[1,1,0],[0,0.25,0],[0,0.5,0],[0,0.75,0],[1,0.25,0],[1,0.5,0],[1,0.75,0]];outlineConnect=0;fontColor=#232F3E;gradientColor=#4AB29A;gradientDirection=north;fillColor=#116D5B;strokeColor=#ffffff;dashed=0;verticalLabelPosition=bottom;verticalAlign=top;align=center;html=1;fontSize=12;fontStyle=0;aspect=fixed;shape=mxgraph.aws4.resourceIcon;resIcon=mxgraph.aws4.elastic_inference_2;" vertex="1" parent="TsTDkmpbsu9RTWT3Dw8V-1">
          <mxGeometry x="877" y="264" width="78" height="78" as="geometry" />
        </mxCell>
        <mxCell id="TsTDkmpbsu9RTWT3Dw8V-50" value="Amazon API&lt;br&gt;Gateway&lt;br&gt;" style="outlineConnect=0;fontColor=#232F3E;gradientColor=#945DF2;gradientDirection=north;fillColor=#5A30B5;strokeColor=#ffffff;dashed=0;verticalLabelPosition=bottom;verticalAlign=top;align=center;html=1;fontSize=12;fontStyle=0;aspect=fixed;shape=mxgraph.aws4.resourceIcon;resIcon=mxgraph.aws4.api_gateway;labelBackgroundColor=#ffffff;" vertex="1" parent="TsTDkmpbsu9RTWT3Dw8V-1">
          <mxGeometry x="541" y="244" width="78" height="78" as="geometry" />
        </mxCell>
        <mxCell id="TsTDkmpbsu9RTWT3Dw8V-51" value="" style="sketch=0;points=[[0,0,0],[0.25,0,0],[0.5,0,0],[0.75,0,0],[1,0,0],[0,1,0],[0.25,1,0],[0.5,1,0],[0.75,1,0],[1,1,0],[0,0.25,0],[0,0.5,0],[0,0.75,0],[1,0.25,0],[1,0.5,0],[1,0.75,0]];outlineConnect=0;fontColor=#232F3E;gradientColor=#F54749;gradientDirection=north;fillColor=#C7131F;strokeColor=#ffffff;dashed=0;verticalLabelPosition=bottom;verticalAlign=top;align=center;html=1;fontSize=12;fontStyle=0;aspect=fixed;shape=mxgraph.aws4.resourceIcon;resIcon=mxgraph.aws4.network_firewall;shadow=0;labelBorderColor=none;" vertex="1" parent="TsTDkmpbsu9RTWT3Dw8V-1">
          <mxGeometry x="463" y="244" width="78" height="78" as="geometry" />
        </mxCell>
        <mxCell id="TsTDkmpbsu9RTWT3Dw8V-52" value="" style="sketch=0;points=[[0,0,0],[0.25,0,0],[0.5,0,0],[0.75,0,0],[1,0,0],[0,1,0],[0.25,1,0],[0.5,1,0],[0.75,1,0],[1,1,0],[0,0.25,0],[0,0.5,0],[0,0.75,0],[1,0.25,0],[1,0.5,0],[1,0.75,0]];outlineConnect=0;fontColor=#232F3E;gradientColor=#60A337;gradientDirection=north;fillColor=#277116;strokeColor=#ffffff;dashed=0;verticalLabelPosition=bottom;verticalAlign=top;align=center;html=1;fontSize=12;fontStyle=0;aspect=fixed;shape=mxgraph.aws4.resourceIcon;resIcon=mxgraph.aws4.s3;" vertex="1" parent="TsTDkmpbsu9RTWT3Dw8V-1">
          <mxGeometry x="509" y="548" width="78" height="78" as="geometry" />
        </mxCell>
        <mxCell id="TsTDkmpbsu9RTWT3Dw8V-53" value="" style="sketch=0;points=[[0,0,0],[0.25,0,0],[0.5,0,0],[0.75,0,0],[1,0,0],[0,1,0],[0.25,1,0],[0.5,1,0],[0.75,1,0],[1,1,0],[0,0.25,0],[0,0.5,0],[0,0.75,0],[1,0.25,0],[1,0.5,0],[1,0.75,0]];outlineConnect=0;fontColor=#232F3E;gradientColor=#60A337;gradientDirection=north;fillColor=#277116;strokeColor=#ffffff;dashed=0;verticalLabelPosition=bottom;verticalAlign=top;align=center;html=1;fontSize=12;fontStyle=0;aspect=fixed;shape=mxgraph.aws4.resourceIcon;resIcon=mxgraph.aws4.s3;" vertex="1" parent="TsTDkmpbsu9RTWT3Dw8V-1">
          <mxGeometry x="1135.5" y="269" width="78" height="78" as="geometry" />
        </mxCell>
        <mxCell id="TsTDkmpbsu9RTWT3Dw8V-54" value="Lambda&lt;br&gt;function" style="outlineConnect=0;fontColor=#232F3E;gradientColor=none;fillColor=#D05C17;strokeColor=none;dashed=0;verticalLabelPosition=bottom;verticalAlign=top;align=center;html=1;fontSize=12;fontStyle=0;aspect=fixed;pointerEvents=1;shape=mxgraph.aws4.lambda_function;labelBackgroundColor=#ffffff;" vertex="1" parent="TsTDkmpbsu9RTWT3Dw8V-1">
          <mxGeometry x="679" y="595" width="78" height="78" as="geometry" />
        </mxCell>
        <mxCell id="TsTDkmpbsu9RTWT3Dw8V-55" value="Amazon&lt;br&gt;CloudWatch&lt;br&gt;" style="outlineConnect=0;fontColor=#232F3E;gradientColor=#F34482;gradientDirection=north;fillColor=#BC1356;strokeColor=#ffffff;dashed=0;verticalLabelPosition=bottom;verticalAlign=top;align=center;html=1;fontSize=12;fontStyle=0;aspect=fixed;shape=mxgraph.aws4.resourceIcon;resIcon=mxgraph.aws4.cloudwatch;labelBackgroundColor=#ffffff;" vertex="1" parent="TsTDkmpbsu9RTWT3Dw8V-1">
          <mxGeometry x="844.5000000000002" y="777" width="78" height="78" as="geometry" />
        </mxCell>
        <mxCell id="TsTDkmpbsu9RTWT3Dw8V-56" value="Amazon SageMaker" style="sketch=0;outlineConnect=0;fontColor=#232F3E;gradientColor=none;strokeColor=#ffffff;fillColor=#232F3E;dashed=0;verticalLabelPosition=middle;verticalAlign=bottom;align=center;html=1;whiteSpace=wrap;fontSize=10;fontStyle=1;spacing=3;shape=mxgraph.aws4.productIcon;prIcon=mxgraph.aws4.sagemaker;" vertex="1" parent="TsTDkmpbsu9RTWT3Dw8V-1">
          <mxGeometry x="1010" y="777" width="80" height="110" as="geometry" />
        </mxCell>
        <mxCell id="TsTDkmpbsu9RTWT3Dw8V-57" value="" style="endArrow=none;html=1;rounded=0;" edge="1" parent="TsTDkmpbsu9RTWT3Dw8V-1">
          <mxGeometry width="50" height="50" relative="1" as="geometry">
            <mxPoint x="430" y="740" as="sourcePoint" />
            <mxPoint x="1250" y="740" as="targetPoint" />
          </mxGeometry>
        </mxCell>
        <mxCell id="ayyrG0KPEHRWeejJpmhq-5" value="Region" style="points=[[0,0],[0.25,0],[0.5,0],[0.75,0],[1,0],[1,0.25],[1,0.5],[1,0.75],[1,1],[0.75,1],[0.5,1],[0.25,1],[0,1],[0,0.75],[0,0.5],[0,0.25]];outlineConnect=0;gradientColor=none;html=1;whiteSpace=wrap;fontSize=12;fontStyle=0;container=1;pointerEvents=0;collapsible=0;recursiveResize=0;shape=mxgraph.aws4.group;grIcon=mxgraph.aws4.group_region;strokeColor=#147EBA;fillColor=none;verticalAlign=top;align=left;spacingLeft=30;fontColor=#147EBA;dashed=1;" vertex="1" parent="TsTDkmpbsu9RTWT3Dw8V-1">
          <mxGeometry x="400" y="120" width="890" height="790" as="geometry" />
        </mxCell>
        <mxCell id="_UhngIyQUcYTbpeiioYq-1" value="" style="endArrow=classic;html=1;rounded=0;fontSize=18;fontColor=#000000;strokeColor=#9933FF;strokeWidth=3;" edge="1" parent="ayyrG0KPEHRWeejJpmhq-5" target="TsTDkmpbsu9RTWT3Dw8V-46">
          <mxGeometry width="50" height="50" relative="1" as="geometry">
            <mxPoint x="190" y="440" as="sourcePoint" />
            <mxPoint x="238.00088714997355" y="429.9976718899363" as="targetPoint" />
          </mxGeometry>
        </mxCell>
        <mxCell id="TsTDkmpbsu9RTWT3Dw8V-13" value="&lt;b&gt;Analytics&lt;br&gt;Data Store&lt;/b&gt;" style="text;html=1;strokeColor=none;fillColor=none;align=center;verticalAlign=middle;whiteSpace=wrap;rounded=0;shadow=0;labelBorderColor=none;fontSize=18;fontColor=#000000;" vertex="1" parent="ayyrG0KPEHRWeejJpmhq-5">
          <mxGeometry x="714.5" y="290" width="120" height="30" as="geometry" />
        </mxCell>
        <mxCell id="_UhngIyQUcYTbpeiioYq-0" value="" style="endArrow=classic;html=1;rounded=0;fontSize=18;fontColor=#000000;strokeColor=#000000;strokeWidth=3;" edge="1" parent="TsTDkmpbsu9RTWT3Dw8V-1">
          <mxGeometry width="50" height="50" relative="1" as="geometry">
            <mxPoint x="278" y="254" as="sourcePoint" />
            <mxPoint x="398" y="254" as="targetPoint" />
          </mxGeometry>
        </mxCell>
        <mxCell id="_UhngIyQUcYTbpeiioYq-4" value="&lt;span style=&quot;background-color: rgb(0, 0, 0); font-size: 15px;&quot;&gt;&lt;font color=&quot;#ffffff&quot; style=&quot;font-size: 15px;&quot;&gt;AWS&lt;/font&gt;&lt;/span&gt;" style="rounded=0;whiteSpace=wrap;html=1;strokeColor=none;fontSize=15;fontColor=#000000;fillColor=#000000;" vertex="1" parent="TsTDkmpbsu9RTWT3Dw8V-1">
          <mxGeometry x="360" y="70" width="50" height="30" as="geometry" />
        </mxCell>
        <mxCell id="-xwCeQ_dSg2gHkQh-zvC-1" value="&lt;b&gt;Secure, Highly Available Interfaces&lt;/b&gt;" style="text;html=1;strokeColor=none;fillColor=none;align=center;verticalAlign=middle;whiteSpace=wrap;rounded=0;shadow=0;labelBorderColor=none;fontSize=18;fontColor=#000000;" vertex="1" parent="TsTDkmpbsu9RTWT3Dw8V-1">
          <mxGeometry x="448.5" y="200" width="190" height="30" as="geometry" />
        </mxCell>
        <mxCell id="nqt65kNyqeUJjji4kSTw-0" value="" style="endArrow=classic;html=1;rounded=0;fontSize=12;fontColor=#009900;strokeColor=#009900;strokeWidth=3;entryX=0.75;entryY=0;entryDx=0;entryDy=0;" edge="1" parent="TsTDkmpbsu9RTWT3Dw8V-1">
          <mxGeometry width="50" height="50" relative="1" as="geometry">
            <mxPoint x="1038" y="309.5001221995926" as="sourcePoint" />
            <mxPoint x="1098" y="309.5" as="targetPoint" />
          </mxGeometry>
        </mxCell>
        <mxCell id="mfvMZESrkAUPCw6BHL27-0" value="&lt;font style=&quot;font-size: 24px;&quot;&gt;&lt;u&gt;AWS Cloud Architecture: PII/Sensitive Data Scrub&lt;/u&gt;&lt;/font&gt;" style="text;html=1;strokeColor=none;fillColor=none;align=center;verticalAlign=middle;whiteSpace=wrap;rounded=0;fontSize=16;" vertex="1" parent="TsTDkmpbsu9RTWT3Dw8V-1">
          <mxGeometry x="280" y="10" width="980" height="30" as="geometry" />
        </mxCell>
      </root>
    </mxGraphModel>
  </diagram>
  <diagram id="BXo77lAgG9FU17EozOgL" name="Meeting Notes">
    <mxGraphModel dx="1186" dy="795" grid="1" gridSize="10" guides="1" tooltips="1" connect="1" arrows="1" fold="1" page="1" pageScale="1" pageWidth="850" pageHeight="1100" math="0" shadow="0">
      <root>
        <mxCell id="0" />
        <mxCell id="1" parent="0" />
        <mxCell id="5N7ZbJTw_4b1dOMRKxE2-1" value="&lt;h1&gt;Toby Fotherby&lt;/h1&gt;&lt;p&gt;Sr. AI/ML Specialist Solutions Architect&lt;/p&gt;&lt;p&gt;fotherby@amazon.com&lt;/p&gt;" style="text;html=1;strokeColor=none;fillColor=none;spacing=5;spacingTop=-20;whiteSpace=wrap;overflow=hidden;rounded=0;" parent="1" vertex="1">
          <mxGeometry x="770" y="20" width="240" height="120" as="geometry" />
        </mxCell>
        <mxCell id="5N7ZbJTw_4b1dOMRKxE2-3" value="&lt;h1&gt;Parking lot / Follow-up&lt;/h1&gt;&lt;h1&gt;&lt;ul&gt;&lt;li&gt;&lt;font style=&quot;font-size: 18px;&quot;&gt;&lt;span style=&quot;font-weight: normal;&quot;&gt;Lorem ipsum ...&lt;/span&gt;&lt;br&gt;&lt;/font&gt;&lt;/li&gt;&lt;li&gt;&lt;span style=&quot;font-weight: 400;&quot;&gt;&lt;font style=&quot;font-size: 18px;&quot;&gt;Lorem ipsum ...&lt;/font&gt;&lt;/span&gt;&lt;br&gt;&lt;/li&gt;&lt;/ul&gt;&lt;/h1&gt;" style="text;html=1;strokeColor=default;fillColor=none;spacing=5;spacingTop=-20;whiteSpace=wrap;overflow=hidden;rounded=0;shadow=0;" parent="1" vertex="1">
          <mxGeometry x="40" y="120" width="870" height="200" as="geometry" />
        </mxCell>
        <mxCell id="livCL_kwqiCR4SOGYSZk-3" value="&lt;h1&gt;Notes: Requirements, objectives, etc,&lt;/h1&gt;&lt;h1&gt;&lt;ul&gt;&lt;li&gt;&lt;font style=&quot;font-size: 18px;&quot;&gt;&lt;span style=&quot;font-weight: normal;&quot;&gt;Lorem ipsum ...&lt;/span&gt;&lt;br&gt;&lt;/font&gt;&lt;/li&gt;&lt;li&gt;&lt;span style=&quot;font-weight: 400;&quot;&gt;&lt;font style=&quot;font-size: 18px;&quot;&gt;Lorem ipsum ...&lt;/font&gt;&lt;/span&gt;&lt;br&gt;&lt;/li&gt;&lt;/ul&gt;&lt;/h1&gt;" style="text;html=1;strokeColor=default;fillColor=none;spacing=5;spacingTop=-20;whiteSpace=wrap;overflow=hidden;rounded=0;" parent="1" vertex="1">
          <mxGeometry x="40" y="370" width="870" height="240" as="geometry" />
        </mxCell>
      </root>
    </mxGraphModel>
  </diagram>
  <diagram name="zz Sol. Arch. 01" id="ueiidLVMwV55pYquR-oP">
    <mxGraphModel dx="1405" dy="965" grid="1" gridSize="10" guides="1" tooltips="1" connect="1" arrows="1" fold="1" page="1" pageScale="1" pageWidth="850" pageHeight="1100" math="0" shadow="0">
      <root>
        <mxCell id="xIlLgOD0bQ-hzUBp31ot-0" />
        <mxCell id="xIlLgOD0bQ-hzUBp31ot-1" parent="xIlLgOD0bQ-hzUBp31ot-0" />
        <mxCell id="xIlLgOD0bQ-hzUBp31ot-2" value="" style="rounded=1;whiteSpace=wrap;html=1;shadow=0;labelBorderColor=none;strokeColor=default;fontSize=18;fontColor=#000000;" parent="xIlLgOD0bQ-hzUBp31ot-1" vertex="1">
          <mxGeometry x="1074" y="162" width="201" height="552" as="geometry" />
        </mxCell>
        <mxCell id="xIlLgOD0bQ-hzUBp31ot-3" value="" style="rounded=1;whiteSpace=wrap;html=1;shadow=0;labelBorderColor=none;strokeColor=default;fontSize=18;fontColor=#000000;" parent="xIlLgOD0bQ-hzUBp31ot-1" vertex="1">
          <mxGeometry x="654" y="474" width="410" height="240" as="geometry" />
        </mxCell>
        <mxCell id="xIlLgOD0bQ-hzUBp31ot-4" value="" style="rounded=1;whiteSpace=wrap;html=1;shadow=0;labelBorderColor=none;strokeColor=default;fontSize=18;fontColor=#000000;" parent="xIlLgOD0bQ-hzUBp31ot-1" vertex="1">
          <mxGeometry x="654" y="160" width="410" height="304" as="geometry" />
        </mxCell>
        <mxCell id="xIlLgOD0bQ-hzUBp31ot-5" value="" style="rounded=1;whiteSpace=wrap;html=1;shadow=0;labelBorderColor=none;strokeColor=default;fontSize=18;fontColor=#000000;" parent="xIlLgOD0bQ-hzUBp31ot-1" vertex="1">
          <mxGeometry x="443" y="162" width="201" height="552" as="geometry" />
        </mxCell>
        <mxCell id="xIlLgOD0bQ-hzUBp31ot-6" value="Data Sets" style="swimlane;whiteSpace=wrap;html=1;shadow=0;strokeColor=default;fontSize=18;startSize=40;" parent="xIlLgOD0bQ-hzUBp31ot-1" vertex="1">
          <mxGeometry x="80" y="80" width="180" height="380" as="geometry" />
        </mxCell>
        <mxCell id="xIlLgOD0bQ-hzUBp31ot-7" value="&lt;font color=&quot;#9933ff&quot;&gt;Call Logs&lt;/font&gt; &amp;amp; Operations Data" style="rounded=1;whiteSpace=wrap;html=1;shadow=0;strokeColor=default;fontSize=18;" parent="xIlLgOD0bQ-hzUBp31ot-6" vertex="1">
          <mxGeometry x="18" y="60" width="140" height="60" as="geometry" />
        </mxCell>
        <mxCell id="xIlLgOD0bQ-hzUBp31ot-8" value="&lt;font color=&quot;#9933ff&quot;&gt;Emails&lt;/font&gt; &amp;amp; Operations Data" style="rounded=1;whiteSpace=wrap;html=1;shadow=0;strokeColor=default;fontSize=18;" parent="xIlLgOD0bQ-hzUBp31ot-6" vertex="1">
          <mxGeometry x="18" y="140" width="140" height="60" as="geometry" />
        </mxCell>
        <mxCell id="xIlLgOD0bQ-hzUBp31ot-9" value="&lt;font color=&quot;#9933ff&quot;&gt;&lt;span style=&quot;caret-color: rgb(153, 51, 255);&quot;&gt;...&lt;/span&gt;&lt;/font&gt;" style="rounded=1;whiteSpace=wrap;html=1;shadow=0;strokeColor=default;fontSize=18;" parent="xIlLgOD0bQ-hzUBp31ot-6" vertex="1">
          <mxGeometry x="18" y="220" width="140" height="60" as="geometry" />
        </mxCell>
        <mxCell id="xIlLgOD0bQ-hzUBp31ot-10" value="&lt;font color=&quot;#9933ff&quot;&gt;PII/Sensitive&lt;/font&gt; &amp;amp;&lt;br&gt;Operations Data" style="rounded=1;whiteSpace=wrap;html=1;shadow=0;strokeColor=default;fontSize=18;" parent="xIlLgOD0bQ-hzUBp31ot-6" vertex="1">
          <mxGeometry x="20" y="300" width="140" height="60" as="geometry" />
        </mxCell>
        <mxCell id="xIlLgOD0bQ-hzUBp31ot-11" value="&lt;font color=&quot;#000000&quot;&gt;In-house&lt;br&gt;BA&lt;/font&gt;" style="shape=umlActor;verticalLabelPosition=bottom;verticalAlign=top;html=1;outlineConnect=0;shadow=0;labelBorderColor=none;strokeColor=default;fontSize=18;fontColor=#9933FF;" parent="xIlLgOD0bQ-hzUBp31ot-1" vertex="1">
          <mxGeometry x="140" y="514" width="30" height="60" as="geometry" />
        </mxCell>
        <mxCell id="xIlLgOD0bQ-hzUBp31ot-12" value="" style="shape=cylinder3;whiteSpace=wrap;html=1;boundedLbl=1;backgroundOutline=1;size=15;shadow=0;strokeColor=#82b366;fontSize=18;fillColor=#d5e8d4;" parent="xIlLgOD0bQ-hzUBp31ot-1" vertex="1">
          <mxGeometry x="1104.5" y="260" width="140" height="140" as="geometry" />
        </mxCell>
        <mxCell id="xIlLgOD0bQ-hzUBp31ot-13" value="&lt;b&gt;Analytics&lt;br&gt;Data Store&lt;/b&gt;" style="text;html=1;strokeColor=none;fillColor=none;align=center;verticalAlign=middle;whiteSpace=wrap;rounded=0;shadow=0;labelBorderColor=none;fontSize=18;fontColor=#000000;" parent="xIlLgOD0bQ-hzUBp31ot-1" vertex="1">
          <mxGeometry x="1114.5" y="660" width="120" height="30" as="geometry" />
        </mxCell>
        <mxCell id="xIlLgOD0bQ-hzUBp31ot-14" value="&lt;font color=&quot;#009900&quot;&gt;Scrubbed&lt;/font&gt;&lt;br&gt;&amp;amp; Ops Data" style="text;html=1;strokeColor=none;fillColor=none;align=center;verticalAlign=middle;whiteSpace=wrap;rounded=0;shadow=0;labelBorderColor=none;fontSize=18;fontColor=#000000;" parent="xIlLgOD0bQ-hzUBp31ot-1" vertex="1">
          <mxGeometry x="1104.5" y="315" width="140" height="30" as="geometry" />
        </mxCell>
        <mxCell id="xIlLgOD0bQ-hzUBp31ot-15" value="&lt;b&gt;ETL&lt;/b&gt;" style="rounded=1;whiteSpace=wrap;html=1;shadow=0;labelBorderColor=none;strokeColor=default;fontSize=18;fontColor=#000000;" parent="xIlLgOD0bQ-hzUBp31ot-1" vertex="1">
          <mxGeometry x="300" y="80" width="80" height="380" as="geometry" />
        </mxCell>
        <mxCell id="xIlLgOD0bQ-hzUBp31ot-16" value="" style="endArrow=classic;html=1;rounded=0;fontSize=18;fontColor=#000000;exitX=1.025;exitY=0.108;exitDx=0;exitDy=0;exitPerimeter=0;entryX=0.5;entryY=0;entryDx=0;entryDy=0;entryPerimeter=0;" parent="xIlLgOD0bQ-hzUBp31ot-1" source="xIlLgOD0bQ-hzUBp31ot-15" target="xIlLgOD0bQ-hzUBp31ot-12" edge="1">
          <mxGeometry width="50" height="50" relative="1" as="geometry">
            <mxPoint x="540" y="370" as="sourcePoint" />
            <mxPoint x="590" y="320" as="targetPoint" />
            <Array as="points">
              <mxPoint x="1175" y="120" />
            </Array>
          </mxGeometry>
        </mxCell>
        <mxCell id="xIlLgOD0bQ-hzUBp31ot-17" value="Operations Data" style="text;html=1;strokeColor=none;fillColor=none;align=center;verticalAlign=middle;whiteSpace=wrap;rounded=0;shadow=0;labelBorderColor=none;fontSize=18;fontColor=#000000;" parent="xIlLgOD0bQ-hzUBp31ot-1" vertex="1">
          <mxGeometry x="660" y="80" width="190" height="30" as="geometry" />
        </mxCell>
        <mxCell id="xIlLgOD0bQ-hzUBp31ot-19" value="&lt;b&gt;Debug,&lt;br&gt;Reports,&lt;br&gt;...&lt;/b&gt;" style="rounded=1;whiteSpace=wrap;html=1;shadow=0;labelBorderColor=none;strokeColor=default;fontSize=18;fontColor=#000000;" parent="xIlLgOD0bQ-hzUBp31ot-1" vertex="1">
          <mxGeometry x="300" y="490" width="80" height="150" as="geometry" />
        </mxCell>
        <mxCell id="xIlLgOD0bQ-hzUBp31ot-25" value="&lt;b&gt;Secure, Highly Available Interfaces&lt;/b&gt;" style="text;html=1;strokeColor=none;fillColor=none;align=center;verticalAlign=middle;whiteSpace=wrap;rounded=0;shadow=0;labelBorderColor=none;fontSize=18;fontColor=#000000;" parent="xIlLgOD0bQ-hzUBp31ot-1" vertex="1">
          <mxGeometry x="448.5" y="200" width="190" height="30" as="geometry" />
        </mxCell>
        <mxCell id="xIlLgOD0bQ-hzUBp31ot-26" value="&lt;b&gt;Scrub Data&lt;/b&gt;" style="text;html=1;strokeColor=none;fillColor=none;align=center;verticalAlign=middle;whiteSpace=wrap;rounded=0;shadow=0;labelBorderColor=none;fontSize=18;fontColor=#000000;" parent="xIlLgOD0bQ-hzUBp31ot-1" vertex="1">
          <mxGeometry x="764" y="176" width="190" height="30" as="geometry" />
        </mxCell>
        <mxCell id="xIlLgOD0bQ-hzUBp31ot-27" value="&lt;b&gt;Revert Data&lt;/b&gt;" style="text;html=1;strokeColor=none;fillColor=none;align=center;verticalAlign=middle;whiteSpace=wrap;rounded=0;shadow=0;labelBorderColor=none;fontSize=18;fontColor=#000000;" parent="xIlLgOD0bQ-hzUBp31ot-1" vertex="1">
          <mxGeometry x="764" y="668" width="190" height="30" as="geometry" />
        </mxCell>
        <mxCell id="xIlLgOD0bQ-hzUBp31ot-28" value="Batch" style="rounded=1;whiteSpace=wrap;html=1;shadow=0;labelBorderColor=none;strokeColor=default;fontSize=18;fontColor=#000000;" parent="xIlLgOD0bQ-hzUBp31ot-1" vertex="1">
          <mxGeometry x="490" y="564" width="120" height="60" as="geometry" />
        </mxCell>
        <mxCell id="xIlLgOD0bQ-hzUBp31ot-29" value="Request / Response" style="rounded=1;whiteSpace=wrap;html=1;shadow=0;labelBorderColor=none;strokeColor=default;fontSize=18;fontColor=#000000;" parent="xIlLgOD0bQ-hzUBp31ot-1" vertex="1">
          <mxGeometry x="490" y="270" width="120" height="60" as="geometry" />
        </mxCell>
        <mxCell id="xIlLgOD0bQ-hzUBp31ot-30" value="Detect PII/Sensitive" style="rounded=1;whiteSpace=wrap;html=1;shadow=0;labelBorderColor=none;strokeColor=default;fontSize=18;fontColor=#000000;" parent="xIlLgOD0bQ-hzUBp31ot-1" vertex="1">
          <mxGeometry x="794" y="231" width="120" height="60" as="geometry" />
        </mxCell>
        <mxCell id="xIlLgOD0bQ-hzUBp31ot-31" value="Replace PII/Sensitive" style="rounded=1;whiteSpace=wrap;html=1;shadow=0;labelBorderColor=none;strokeColor=default;fontSize=18;fontColor=#000000;" parent="xIlLgOD0bQ-hzUBp31ot-1" vertex="1">
          <mxGeometry x="922.5" y="374" width="120" height="60" as="geometry" />
        </mxCell>
        <mxCell id="xIlLgOD0bQ-hzUBp31ot-32" value="Store Replacements" style="rounded=1;whiteSpace=wrap;html=1;shadow=0;labelBorderColor=none;strokeColor=default;fontSize=18;fontColor=#000000;" parent="xIlLgOD0bQ-hzUBp31ot-1" vertex="1">
          <mxGeometry x="690" y="374" width="120" height="60" as="geometry" />
        </mxCell>
        <mxCell id="xIlLgOD0bQ-hzUBp31ot-33" value="Retrieve Replacements" style="rounded=1;whiteSpace=wrap;html=1;shadow=0;labelBorderColor=none;strokeColor=default;fontSize=18;fontColor=#000000;" parent="xIlLgOD0bQ-hzUBp31ot-1" vertex="1">
          <mxGeometry x="799" y="591" width="120" height="60" as="geometry" />
        </mxCell>
        <mxCell id="xIlLgOD0bQ-hzUBp31ot-34" value="Apply PII/Sensitive" style="rounded=1;whiteSpace=wrap;html=1;shadow=0;labelBorderColor=none;strokeColor=default;fontSize=18;fontColor=#000000;" parent="xIlLgOD0bQ-hzUBp31ot-1" vertex="1">
          <mxGeometry x="922.5" y="514" width="120" height="60" as="geometry" />
        </mxCell>
        <mxCell id="xIlLgOD0bQ-hzUBp31ot-35" value="Validate Revert Key" style="rounded=1;whiteSpace=wrap;html=1;shadow=0;labelBorderColor=none;strokeColor=default;fontSize=18;fontColor=#000000;" parent="xIlLgOD0bQ-hzUBp31ot-1" vertex="1">
          <mxGeometry x="679" y="514" width="120" height="60" as="geometry" />
        </mxCell>
        <mxCell id="Sg8eZ8jXSNIdDcTeeI7H-0" value="Lambda&lt;br&gt;function" style="outlineConnect=0;fontColor=#232F3E;gradientColor=none;fillColor=#D05C17;strokeColor=none;dashed=0;verticalLabelPosition=bottom;verticalAlign=top;align=center;html=1;fontSize=12;fontStyle=0;aspect=fixed;pointerEvents=1;shape=mxgraph.aws4.lambda_function;labelBackgroundColor=#ffffff;" parent="xIlLgOD0bQ-hzUBp31ot-1" vertex="1">
          <mxGeometry x="670" y="176" width="78" height="78" as="geometry" />
        </mxCell>
        <mxCell id="Sg8eZ8jXSNIdDcTeeI7H-1" value="Amazon&lt;br&gt;DynamoDB&lt;br&gt;" style="outlineConnect=0;fontColor=#232F3E;gradientColor=#4D72F3;gradientDirection=north;fillColor=#3334B9;strokeColor=#ffffff;dashed=0;verticalLabelPosition=bottom;verticalAlign=top;align=center;html=1;fontSize=12;fontStyle=0;aspect=fixed;shape=mxgraph.aws4.resourceIcon;resIcon=mxgraph.aws4.dynamodb;labelBackgroundColor=#ffffff;spacingTop=5;" parent="xIlLgOD0bQ-hzUBp31ot-1" vertex="1">
          <mxGeometry x="821.0000000000002" y="433" width="78" height="78" as="geometry" />
        </mxCell>
        <mxCell id="Sg8eZ8jXSNIdDcTeeI7H-2" value="" style="sketch=0;points=[[0,0,0],[0.25,0,0],[0.5,0,0],[0.75,0,0],[1,0,0],[0,1,0],[0.25,1,0],[0.5,1,0],[0.75,1,0],[1,1,0],[0,0.25,0],[0,0.5,0],[0,0.75,0],[1,0.25,0],[1,0.5,0],[1,0.75,0]];outlineConnect=0;fontColor=#232F3E;gradientColor=#4AB29A;gradientDirection=north;fillColor=#116D5B;strokeColor=#ffffff;dashed=0;verticalLabelPosition=bottom;verticalAlign=top;align=center;html=1;fontSize=12;fontStyle=0;aspect=fixed;shape=mxgraph.aws4.resourceIcon;resIcon=mxgraph.aws4.comprehend;" parent="xIlLgOD0bQ-hzUBp31ot-1" vertex="1">
          <mxGeometry x="764" y="286" width="78" height="78" as="geometry" />
        </mxCell>
        <mxCell id="Sg8eZ8jXSNIdDcTeeI7H-3" value="" style="sketch=0;points=[[0,0,0],[0.25,0,0],[0.5,0,0],[0.75,0,0],[1,0,0],[0,1,0],[0.25,1,0],[0.5,1,0],[0.75,1,0],[1,1,0],[0,0.25,0],[0,0.5,0],[0,0.75,0],[1,0.25,0],[1,0.5,0],[1,0.75,0]];outlineConnect=0;fontColor=#232F3E;gradientColor=#4AB29A;gradientDirection=north;fillColor=#116D5B;strokeColor=#ffffff;dashed=0;verticalLabelPosition=bottom;verticalAlign=top;align=center;html=1;fontSize=12;fontStyle=0;aspect=fixed;shape=mxgraph.aws4.resourceIcon;resIcon=mxgraph.aws4.elastic_inference_2;" parent="xIlLgOD0bQ-hzUBp31ot-1" vertex="1">
          <mxGeometry x="874" y="285" width="78" height="78" as="geometry" />
        </mxCell>
        <mxCell id="Sg8eZ8jXSNIdDcTeeI7H-7" value="Amazon API&lt;br&gt;Gateway&lt;br&gt;" style="outlineConnect=0;fontColor=#232F3E;gradientColor=#945DF2;gradientDirection=north;fillColor=#5A30B5;strokeColor=#ffffff;dashed=0;verticalLabelPosition=bottom;verticalAlign=top;align=center;html=1;fontSize=12;fontStyle=0;aspect=fixed;shape=mxgraph.aws4.resourceIcon;resIcon=mxgraph.aws4.api_gateway;labelBackgroundColor=#ffffff;" parent="xIlLgOD0bQ-hzUBp31ot-1" vertex="1">
          <mxGeometry x="548" y="352" width="78" height="78" as="geometry" />
        </mxCell>
        <mxCell id="Sg8eZ8jXSNIdDcTeeI7H-8" value="" style="sketch=0;points=[[0,0,0],[0.25,0,0],[0.5,0,0],[0.75,0,0],[1,0,0],[0,1,0],[0.25,1,0],[0.5,1,0],[0.75,1,0],[1,1,0],[0,0.25,0],[0,0.5,0],[0,0.75,0],[1,0.25,0],[1,0.5,0],[1,0.75,0]];outlineConnect=0;fontColor=#232F3E;gradientColor=#F54749;gradientDirection=north;fillColor=#C7131F;strokeColor=#ffffff;dashed=0;verticalLabelPosition=bottom;verticalAlign=top;align=center;html=1;fontSize=12;fontStyle=0;aspect=fixed;shape=mxgraph.aws4.resourceIcon;resIcon=mxgraph.aws4.network_firewall;shadow=0;labelBorderColor=none;" parent="xIlLgOD0bQ-hzUBp31ot-1" vertex="1">
          <mxGeometry x="470" y="352" width="78" height="78" as="geometry" />
        </mxCell>
        <mxCell id="B_20JvM2izYspcZtf8Tu-0" value="" style="sketch=0;points=[[0,0,0],[0.25,0,0],[0.5,0,0],[0.75,0,0],[1,0,0],[0,1,0],[0.25,1,0],[0.5,1,0],[0.75,1,0],[1,1,0],[0,0.25,0],[0,0.5,0],[0,0.75,0],[1,0.25,0],[1,0.5,0],[1,0.75,0]];outlineConnect=0;fontColor=#232F3E;gradientColor=#60A337;gradientDirection=north;fillColor=#277116;strokeColor=#ffffff;dashed=0;verticalLabelPosition=bottom;verticalAlign=top;align=center;html=1;fontSize=12;fontStyle=0;aspect=fixed;shape=mxgraph.aws4.resourceIcon;resIcon=mxgraph.aws4.s3;" parent="xIlLgOD0bQ-hzUBp31ot-1" vertex="1">
          <mxGeometry x="511" y="482" width="78" height="78" as="geometry" />
        </mxCell>
        <mxCell id="B_20JvM2izYspcZtf8Tu-1" value="" style="sketch=0;points=[[0,0,0],[0.25,0,0],[0.5,0,0],[0.75,0,0],[1,0,0],[0,1,0],[0.25,1,0],[0.5,1,0],[0.75,1,0],[1,1,0],[0,0.25,0],[0,0.5,0],[0,0.75,0],[1,0.25,0],[1,0.5,0],[1,0.75,0]];outlineConnect=0;fontColor=#232F3E;gradientColor=#60A337;gradientDirection=north;fillColor=#277116;strokeColor=#ffffff;dashed=0;verticalLabelPosition=bottom;verticalAlign=top;align=center;html=1;fontSize=12;fontStyle=0;aspect=fixed;shape=mxgraph.aws4.resourceIcon;resIcon=mxgraph.aws4.s3;" parent="xIlLgOD0bQ-hzUBp31ot-1" vertex="1">
          <mxGeometry x="1135.5" y="422" width="78" height="78" as="geometry" />
        </mxCell>
        <mxCell id="B_20JvM2izYspcZtf8Tu-4" value="Lambda&lt;br&gt;function" style="outlineConnect=0;fontColor=#232F3E;gradientColor=none;fillColor=#D05C17;strokeColor=none;dashed=0;verticalLabelPosition=bottom;verticalAlign=top;align=center;html=1;fontSize=12;fontStyle=0;aspect=fixed;pointerEvents=1;shape=mxgraph.aws4.lambda_function;labelBackgroundColor=#ffffff;" parent="xIlLgOD0bQ-hzUBp31ot-1" vertex="1">
          <mxGeometry x="679" y="595" width="78" height="78" as="geometry" />
        </mxCell>
        <mxCell id="dld36XjlKfKtadBIlpJV-0" value="Amazon&lt;br&gt;CloudWatch&lt;br&gt;" style="outlineConnect=0;fontColor=#232F3E;gradientColor=#F34482;gradientDirection=north;fillColor=#BC1356;strokeColor=#ffffff;dashed=0;verticalLabelPosition=bottom;verticalAlign=top;align=center;html=1;fontSize=12;fontStyle=0;aspect=fixed;shape=mxgraph.aws4.resourceIcon;resIcon=mxgraph.aws4.cloudwatch;labelBackgroundColor=#ffffff;" parent="xIlLgOD0bQ-hzUBp31ot-1" vertex="1">
          <mxGeometry x="844.5000000000002" y="777" width="78" height="78" as="geometry" />
        </mxCell>
        <mxCell id="dld36XjlKfKtadBIlpJV-1" value="Amazon SageMaker" style="sketch=0;outlineConnect=0;fontColor=#232F3E;gradientColor=none;strokeColor=#ffffff;fillColor=#232F3E;dashed=0;verticalLabelPosition=middle;verticalAlign=bottom;align=center;html=1;whiteSpace=wrap;fontSize=10;fontStyle=1;spacing=3;shape=mxgraph.aws4.productIcon;prIcon=mxgraph.aws4.sagemaker;" parent="xIlLgOD0bQ-hzUBp31ot-1" vertex="1">
          <mxGeometry x="1010" y="777" width="80" height="110" as="geometry" />
        </mxCell>
        <mxCell id="dld36XjlKfKtadBIlpJV-2" value="" style="endArrow=none;html=1;rounded=0;" parent="xIlLgOD0bQ-hzUBp31ot-1" edge="1">
          <mxGeometry width="50" height="50" relative="1" as="geometry">
            <mxPoint x="280" y="740" as="sourcePoint" />
            <mxPoint x="1280" y="740" as="targetPoint" />
          </mxGeometry>
        </mxCell>
        <mxCell id="KrJ0ZPRBG7C2eRE_CpnX-0" value="&lt;font style=&quot;font-size: 24px;&quot;&gt;&lt;u&gt;Conceptual Architecture w/ AWS Service Overlay: Data Scrubbing&lt;/u&gt;&lt;/font&gt;" style="text;html=1;strokeColor=none;fillColor=none;align=center;verticalAlign=middle;whiteSpace=wrap;rounded=0;fontSize=16;" parent="xIlLgOD0bQ-hzUBp31ot-1" vertex="1">
          <mxGeometry x="348.5" y="10" width="781" height="30" as="geometry" />
        </mxCell>
      </root>
    </mxGraphModel>
  </diagram>
  <diagram name="zzz Sol. Arch. 02" id="lMvSm6yLzMpFMoGlxfts">
    <mxGraphModel dx="1054" dy="724" grid="1" gridSize="10" guides="1" tooltips="1" connect="1" arrows="1" fold="1" page="1" pageScale="1" pageWidth="850" pageHeight="1100" math="0" shadow="0">
      <root>
        <mxCell id="tK7-nYha1fmJZLgDKMoY-0" />
        <mxCell id="tK7-nYha1fmJZLgDKMoY-1" parent="tK7-nYha1fmJZLgDKMoY-0" />
        <mxCell id="tK7-nYha1fmJZLgDKMoY-2" value="" style="rounded=1;whiteSpace=wrap;html=1;shadow=0;labelBorderColor=none;strokeColor=default;fontSize=18;fontColor=#000000;" parent="tK7-nYha1fmJZLgDKMoY-1" vertex="1">
          <mxGeometry x="1074" y="162" width="201" height="552" as="geometry" />
        </mxCell>
        <mxCell id="tK7-nYha1fmJZLgDKMoY-3" value="" style="rounded=1;whiteSpace=wrap;html=1;shadow=0;labelBorderColor=none;strokeColor=default;fontSize=18;fontColor=#000000;" parent="tK7-nYha1fmJZLgDKMoY-1" vertex="1">
          <mxGeometry x="654" y="474" width="410" height="240" as="geometry" />
        </mxCell>
        <mxCell id="tK7-nYha1fmJZLgDKMoY-4" value="" style="rounded=1;whiteSpace=wrap;html=1;shadow=0;labelBorderColor=none;strokeColor=default;fontSize=18;fontColor=#000000;" parent="tK7-nYha1fmJZLgDKMoY-1" vertex="1">
          <mxGeometry x="654" y="160" width="410" height="304" as="geometry" />
        </mxCell>
        <mxCell id="tK7-nYha1fmJZLgDKMoY-5" value="" style="rounded=1;whiteSpace=wrap;html=1;shadow=0;labelBorderColor=none;strokeColor=default;fontSize=18;fontColor=#000000;" parent="tK7-nYha1fmJZLgDKMoY-1" vertex="1">
          <mxGeometry x="443" y="162" width="201" height="552" as="geometry" />
        </mxCell>
        <mxCell id="tK7-nYha1fmJZLgDKMoY-6" value="Data Sets" style="swimlane;whiteSpace=wrap;html=1;shadow=0;strokeColor=default;fontSize=18;startSize=40;" parent="tK7-nYha1fmJZLgDKMoY-1" vertex="1">
          <mxGeometry x="80" y="80" width="180" height="380" as="geometry" />
        </mxCell>
        <mxCell id="tK7-nYha1fmJZLgDKMoY-7" value="&lt;font color=&quot;#9933ff&quot;&gt;Call Logs&lt;/font&gt; &amp;amp; Operations Data" style="rounded=1;whiteSpace=wrap;html=1;shadow=0;strokeColor=default;fontSize=18;" parent="tK7-nYha1fmJZLgDKMoY-6" vertex="1">
          <mxGeometry x="18" y="60" width="140" height="60" as="geometry" />
        </mxCell>
        <mxCell id="tK7-nYha1fmJZLgDKMoY-8" value="&lt;font color=&quot;#9933ff&quot;&gt;Emails&lt;/font&gt; &amp;amp; Operations Data" style="rounded=1;whiteSpace=wrap;html=1;shadow=0;strokeColor=default;fontSize=18;" parent="tK7-nYha1fmJZLgDKMoY-6" vertex="1">
          <mxGeometry x="18" y="140" width="140" height="60" as="geometry" />
        </mxCell>
        <mxCell id="tK7-nYha1fmJZLgDKMoY-9" value="&lt;font color=&quot;#9933ff&quot;&gt;&lt;span style=&quot;caret-color: rgb(153, 51, 255);&quot;&gt;...&lt;/span&gt;&lt;/font&gt;" style="rounded=1;whiteSpace=wrap;html=1;shadow=0;strokeColor=default;fontSize=18;" parent="tK7-nYha1fmJZLgDKMoY-6" vertex="1">
          <mxGeometry x="18" y="220" width="140" height="60" as="geometry" />
        </mxCell>
        <mxCell id="tK7-nYha1fmJZLgDKMoY-10" value="&lt;font color=&quot;#9933ff&quot;&gt;PII/Sensitive&lt;/font&gt; &amp;amp;&lt;br&gt;Operations Data" style="rounded=1;whiteSpace=wrap;html=1;shadow=0;strokeColor=default;fontSize=18;" parent="tK7-nYha1fmJZLgDKMoY-6" vertex="1">
          <mxGeometry x="20" y="300" width="140" height="60" as="geometry" />
        </mxCell>
        <mxCell id="tK7-nYha1fmJZLgDKMoY-11" value="&lt;font color=&quot;#000000&quot;&gt;In-house&lt;br&gt;BA&lt;/font&gt;" style="shape=umlActor;verticalLabelPosition=bottom;verticalAlign=top;html=1;outlineConnect=0;shadow=0;labelBorderColor=none;strokeColor=default;fontSize=18;fontColor=#9933FF;" parent="tK7-nYha1fmJZLgDKMoY-1" vertex="1">
          <mxGeometry x="140" y="514" width="30" height="60" as="geometry" />
        </mxCell>
        <mxCell id="tK7-nYha1fmJZLgDKMoY-13" value="&lt;b&gt;Analytics&lt;br&gt;Data Store&lt;/b&gt;" style="text;html=1;strokeColor=none;fillColor=none;align=center;verticalAlign=middle;whiteSpace=wrap;rounded=0;shadow=0;labelBorderColor=none;fontSize=18;fontColor=#000000;" parent="tK7-nYha1fmJZLgDKMoY-1" vertex="1">
          <mxGeometry x="1114.5" y="660" width="120" height="30" as="geometry" />
        </mxCell>
        <mxCell id="tK7-nYha1fmJZLgDKMoY-15" value="&lt;b&gt;ETL&lt;/b&gt;" style="rounded=1;whiteSpace=wrap;html=1;shadow=0;labelBorderColor=none;strokeColor=default;fontSize=18;fontColor=#000000;" parent="tK7-nYha1fmJZLgDKMoY-1" vertex="1">
          <mxGeometry x="300" y="80" width="80" height="380" as="geometry" />
        </mxCell>
        <mxCell id="tK7-nYha1fmJZLgDKMoY-16" value="" style="endArrow=classic;html=1;rounded=0;fontSize=18;fontColor=#000000;exitX=1.025;exitY=0.108;exitDx=0;exitDy=0;exitPerimeter=0;entryX=0.5;entryY=0;entryDx=0;entryDy=0;entryPerimeter=0;" parent="tK7-nYha1fmJZLgDKMoY-1" source="tK7-nYha1fmJZLgDKMoY-15" edge="1">
          <mxGeometry width="50" height="50" relative="1" as="geometry">
            <mxPoint x="540" y="370" as="sourcePoint" />
            <mxPoint x="1174.5" y="260" as="targetPoint" />
            <Array as="points">
              <mxPoint x="1175" y="120" />
            </Array>
          </mxGeometry>
        </mxCell>
        <mxCell id="tK7-nYha1fmJZLgDKMoY-17" value="Operations Data" style="text;html=1;strokeColor=none;fillColor=none;align=center;verticalAlign=middle;whiteSpace=wrap;rounded=0;shadow=0;labelBorderColor=none;fontSize=18;fontColor=#000000;" parent="tK7-nYha1fmJZLgDKMoY-1" vertex="1">
          <mxGeometry x="660" y="80" width="190" height="30" as="geometry" />
        </mxCell>
        <mxCell id="tK7-nYha1fmJZLgDKMoY-18" value="" style="endArrow=classic;html=1;rounded=0;fontSize=18;fontColor=#000000;entryX=0;entryY=0.5;entryDx=0;entryDy=0;" parent="tK7-nYha1fmJZLgDKMoY-1" edge="1">
          <mxGeometry width="50" height="50" relative="1" as="geometry">
            <mxPoint x="380" y="310" as="sourcePoint" />
            <mxPoint x="440" y="310" as="targetPoint" />
          </mxGeometry>
        </mxCell>
        <mxCell id="tK7-nYha1fmJZLgDKMoY-19" value="&lt;b&gt;Debug,&lt;br&gt;Reports,&lt;br&gt;...&lt;/b&gt;" style="rounded=1;whiteSpace=wrap;html=1;shadow=0;labelBorderColor=none;strokeColor=default;fontSize=18;fontColor=#000000;" parent="tK7-nYha1fmJZLgDKMoY-1" vertex="1">
          <mxGeometry x="300" y="490" width="80" height="150" as="geometry" />
        </mxCell>
        <mxCell id="tK7-nYha1fmJZLgDKMoY-20" value="&lt;font color=&quot;#9933ff&quot;&gt;PII/Sensitive&lt;/font&gt;" style="text;html=1;strokeColor=none;fillColor=none;align=center;verticalAlign=middle;whiteSpace=wrap;rounded=0;shadow=0;labelBorderColor=none;fontSize=18;fontColor=#000000;" parent="tK7-nYha1fmJZLgDKMoY-1" vertex="1">
          <mxGeometry x="350" y="310" width="120" height="30" as="geometry" />
        </mxCell>
        <mxCell id="tK7-nYha1fmJZLgDKMoY-21" value="" style="endArrow=classic;html=1;rounded=0;fontSize=18;fontColor=#000000;entryX=0;entryY=0.5;entryDx=0;entryDy=0;" parent="tK7-nYha1fmJZLgDKMoY-1" edge="1">
          <mxGeometry width="50" height="50" relative="1" as="geometry">
            <mxPoint x="380" y="540" as="sourcePoint" />
            <mxPoint x="450" y="540" as="targetPoint" />
          </mxGeometry>
        </mxCell>
        <mxCell id="tK7-nYha1fmJZLgDKMoY-22" value="&lt;font color=&quot;#009900&quot;&gt;Scrubbed&lt;/font&gt;" style="text;html=1;strokeColor=none;fillColor=none;align=center;verticalAlign=middle;whiteSpace=wrap;rounded=0;shadow=0;labelBorderColor=none;fontSize=18;fontColor=#000000;" parent="tK7-nYha1fmJZLgDKMoY-1" vertex="1">
          <mxGeometry x="350" y="510" width="120" height="30" as="geometry" />
        </mxCell>
        <mxCell id="tK7-nYha1fmJZLgDKMoY-23" value="&lt;font color=&quot;#9933ff&quot;&gt;PII/Sensitive&lt;/font&gt;" style="text;html=1;strokeColor=none;fillColor=none;align=center;verticalAlign=middle;whiteSpace=wrap;rounded=0;shadow=0;labelBorderColor=none;fontSize=18;fontColor=#000000;" parent="tK7-nYha1fmJZLgDKMoY-1" vertex="1">
          <mxGeometry x="350" y="600" width="120" height="30" as="geometry" />
        </mxCell>
        <mxCell id="tK7-nYha1fmJZLgDKMoY-24" value="" style="endArrow=classic;html=1;rounded=0;fontSize=18;fontColor=#000000;entryX=0.25;entryY=0;entryDx=0;entryDy=0;exitX=0.75;exitY=0;exitDx=0;exitDy=0;" parent="tK7-nYha1fmJZLgDKMoY-1" source="tK7-nYha1fmJZLgDKMoY-23" target="tK7-nYha1fmJZLgDKMoY-23" edge="1">
          <mxGeometry width="50" height="50" relative="1" as="geometry">
            <mxPoint x="560" y="370" as="sourcePoint" />
            <mxPoint x="610" y="320" as="targetPoint" />
          </mxGeometry>
        </mxCell>
        <mxCell id="tK7-nYha1fmJZLgDKMoY-25" value="&lt;b&gt;Secure, Highly Available Interfaces&lt;/b&gt;" style="text;html=1;strokeColor=none;fillColor=none;align=center;verticalAlign=middle;whiteSpace=wrap;rounded=0;shadow=0;labelBorderColor=none;fontSize=18;fontColor=#000000;" parent="tK7-nYha1fmJZLgDKMoY-1" vertex="1">
          <mxGeometry x="448.5" y="200" width="190" height="30" as="geometry" />
        </mxCell>
        <mxCell id="tK7-nYha1fmJZLgDKMoY-26" value="&lt;b&gt;Scrub Data&lt;/b&gt;" style="text;html=1;strokeColor=none;fillColor=none;align=center;verticalAlign=middle;whiteSpace=wrap;rounded=0;shadow=0;labelBorderColor=none;fontSize=18;fontColor=#000000;" parent="tK7-nYha1fmJZLgDKMoY-1" vertex="1">
          <mxGeometry x="764" y="190" width="190" height="30" as="geometry" />
        </mxCell>
        <mxCell id="tK7-nYha1fmJZLgDKMoY-27" value="&lt;b&gt;Revert Data&lt;/b&gt;" style="text;html=1;strokeColor=none;fillColor=none;align=center;verticalAlign=middle;whiteSpace=wrap;rounded=0;shadow=0;labelBorderColor=none;fontSize=18;fontColor=#000000;" parent="tK7-nYha1fmJZLgDKMoY-1" vertex="1">
          <mxGeometry x="764" y="668" width="190" height="30" as="geometry" />
        </mxCell>
        <mxCell id="tK7-nYha1fmJZLgDKMoY-36" value="Lambda&lt;br&gt;function" style="outlineConnect=0;fontColor=#232F3E;gradientColor=none;fillColor=#D05C17;strokeColor=none;dashed=0;verticalLabelPosition=bottom;verticalAlign=top;align=center;html=1;fontSize=12;fontStyle=0;aspect=fixed;pointerEvents=1;shape=mxgraph.aws4.lambda_function;labelBackgroundColor=#ffffff;" parent="tK7-nYha1fmJZLgDKMoY-1" vertex="1">
          <mxGeometry x="672" y="180" width="78" height="78" as="geometry" />
        </mxCell>
        <mxCell id="tK7-nYha1fmJZLgDKMoY-37" value="Amazon&lt;br&gt;DynamoDB&lt;br&gt;" style="outlineConnect=0;fontColor=#232F3E;gradientColor=#4D72F3;gradientDirection=north;fillColor=#3334B9;strokeColor=#ffffff;dashed=0;verticalLabelPosition=bottom;verticalAlign=top;align=center;html=1;fontSize=12;fontStyle=0;aspect=fixed;shape=mxgraph.aws4.resourceIcon;resIcon=mxgraph.aws4.dynamodb;labelBackgroundColor=#ffffff;spacingTop=5;" parent="tK7-nYha1fmJZLgDKMoY-1" vertex="1">
          <mxGeometry x="820.0000000000002" y="422" width="78" height="78" as="geometry" />
        </mxCell>
        <mxCell id="tK7-nYha1fmJZLgDKMoY-38" value="" style="sketch=0;points=[[0,0,0],[0.25,0,0],[0.5,0,0],[0.75,0,0],[1,0,0],[0,1,0],[0.25,1,0],[0.5,1,0],[0.75,1,0],[1,1,0],[0,0.25,0],[0,0.5,0],[0,0.75,0],[1,0.25,0],[1,0.5,0],[1,0.75,0]];outlineConnect=0;fontColor=#232F3E;gradientColor=#4AB29A;gradientDirection=north;fillColor=#116D5B;strokeColor=#ffffff;dashed=0;verticalLabelPosition=bottom;verticalAlign=top;align=center;html=1;fontSize=12;fontStyle=0;aspect=fixed;shape=mxgraph.aws4.resourceIcon;resIcon=mxgraph.aws4.comprehend;" parent="tK7-nYha1fmJZLgDKMoY-1" vertex="1">
          <mxGeometry x="750" y="286" width="78" height="78" as="geometry" />
        </mxCell>
        <mxCell id="tK7-nYha1fmJZLgDKMoY-39" value="" style="sketch=0;points=[[0,0,0],[0.25,0,0],[0.5,0,0],[0.75,0,0],[1,0,0],[0,1,0],[0.25,1,0],[0.5,1,0],[0.75,1,0],[1,1,0],[0,0.25,0],[0,0.5,0],[0,0.75,0],[1,0.25,0],[1,0.5,0],[1,0.75,0]];outlineConnect=0;fontColor=#232F3E;gradientColor=#4AB29A;gradientDirection=north;fillColor=#116D5B;strokeColor=#ffffff;dashed=0;verticalLabelPosition=bottom;verticalAlign=top;align=center;html=1;fontSize=12;fontStyle=0;aspect=fixed;shape=mxgraph.aws4.resourceIcon;resIcon=mxgraph.aws4.elastic_inference_2;" parent="tK7-nYha1fmJZLgDKMoY-1" vertex="1">
          <mxGeometry x="860" y="285" width="78" height="78" as="geometry" />
        </mxCell>
        <mxCell id="tK7-nYha1fmJZLgDKMoY-40" value="Amazon API&lt;br&gt;Gateway&lt;br&gt;" style="outlineConnect=0;fontColor=#232F3E;gradientColor=#945DF2;gradientDirection=north;fillColor=#5A30B5;strokeColor=#ffffff;dashed=0;verticalLabelPosition=bottom;verticalAlign=top;align=center;html=1;fontSize=12;fontStyle=0;aspect=fixed;shape=mxgraph.aws4.resourceIcon;resIcon=mxgraph.aws4.api_gateway;labelBackgroundColor=#ffffff;" parent="tK7-nYha1fmJZLgDKMoY-1" vertex="1">
          <mxGeometry x="548" y="352" width="78" height="78" as="geometry" />
        </mxCell>
        <mxCell id="tK7-nYha1fmJZLgDKMoY-41" value="" style="sketch=0;points=[[0,0,0],[0.25,0,0],[0.5,0,0],[0.75,0,0],[1,0,0],[0,1,0],[0.25,1,0],[0.5,1,0],[0.75,1,0],[1,1,0],[0,0.25,0],[0,0.5,0],[0,0.75,0],[1,0.25,0],[1,0.5,0],[1,0.75,0]];outlineConnect=0;fontColor=#232F3E;gradientColor=#F54749;gradientDirection=north;fillColor=#C7131F;strokeColor=#ffffff;dashed=0;verticalLabelPosition=bottom;verticalAlign=top;align=center;html=1;fontSize=12;fontStyle=0;aspect=fixed;shape=mxgraph.aws4.resourceIcon;resIcon=mxgraph.aws4.network_firewall;shadow=0;labelBorderColor=none;" parent="tK7-nYha1fmJZLgDKMoY-1" vertex="1">
          <mxGeometry x="470" y="352" width="78" height="78" as="geometry" />
        </mxCell>
        <mxCell id="tK7-nYha1fmJZLgDKMoY-42" value="" style="sketch=0;points=[[0,0,0],[0.25,0,0],[0.5,0,0],[0.75,0,0],[1,0,0],[0,1,0],[0.25,1,0],[0.5,1,0],[0.75,1,0],[1,1,0],[0,0.25,0],[0,0.5,0],[0,0.75,0],[1,0.25,0],[1,0.5,0],[1,0.75,0]];outlineConnect=0;fontColor=#232F3E;gradientColor=#60A337;gradientDirection=north;fillColor=#277116;strokeColor=#ffffff;dashed=0;verticalLabelPosition=bottom;verticalAlign=top;align=center;html=1;fontSize=12;fontStyle=0;aspect=fixed;shape=mxgraph.aws4.resourceIcon;resIcon=mxgraph.aws4.s3;" parent="tK7-nYha1fmJZLgDKMoY-1" vertex="1">
          <mxGeometry x="511" y="488" width="78" height="78" as="geometry" />
        </mxCell>
        <mxCell id="tK7-nYha1fmJZLgDKMoY-43" value="" style="sketch=0;points=[[0,0,0],[0.25,0,0],[0.5,0,0],[0.75,0,0],[1,0,0],[0,1,0],[0.25,1,0],[0.5,1,0],[0.75,1,0],[1,1,0],[0,0.25,0],[0,0.5,0],[0,0.75,0],[1,0.25,0],[1,0.5,0],[1,0.75,0]];outlineConnect=0;fontColor=#232F3E;gradientColor=#60A337;gradientDirection=north;fillColor=#277116;strokeColor=#ffffff;dashed=0;verticalLabelPosition=bottom;verticalAlign=top;align=center;html=1;fontSize=12;fontStyle=0;aspect=fixed;shape=mxgraph.aws4.resourceIcon;resIcon=mxgraph.aws4.s3;" parent="tK7-nYha1fmJZLgDKMoY-1" vertex="1">
          <mxGeometry x="1135.5" y="422" width="78" height="78" as="geometry" />
        </mxCell>
        <mxCell id="tK7-nYha1fmJZLgDKMoY-44" value="Lambda&lt;br&gt;function" style="outlineConnect=0;fontColor=#232F3E;gradientColor=none;fillColor=#D05C17;strokeColor=none;dashed=0;verticalLabelPosition=bottom;verticalAlign=top;align=center;html=1;fontSize=12;fontStyle=0;aspect=fixed;pointerEvents=1;shape=mxgraph.aws4.lambda_function;labelBackgroundColor=#ffffff;" parent="tK7-nYha1fmJZLgDKMoY-1" vertex="1">
          <mxGeometry x="679" y="595" width="78" height="78" as="geometry" />
        </mxCell>
        <mxCell id="tK7-nYha1fmJZLgDKMoY-45" value="Amazon&lt;br&gt;CloudWatch&lt;br&gt;" style="outlineConnect=0;fontColor=#232F3E;gradientColor=#F34482;gradientDirection=north;fillColor=#BC1356;strokeColor=#ffffff;dashed=0;verticalLabelPosition=bottom;verticalAlign=top;align=center;html=1;fontSize=12;fontStyle=0;aspect=fixed;shape=mxgraph.aws4.resourceIcon;resIcon=mxgraph.aws4.cloudwatch;labelBackgroundColor=#ffffff;" parent="tK7-nYha1fmJZLgDKMoY-1" vertex="1">
          <mxGeometry x="844.5000000000002" y="777" width="78" height="78" as="geometry" />
        </mxCell>
        <mxCell id="tK7-nYha1fmJZLgDKMoY-46" value="Amazon SageMaker" style="sketch=0;outlineConnect=0;fontColor=#232F3E;gradientColor=none;strokeColor=#ffffff;fillColor=#232F3E;dashed=0;verticalLabelPosition=middle;verticalAlign=bottom;align=center;html=1;whiteSpace=wrap;fontSize=10;fontStyle=1;spacing=3;shape=mxgraph.aws4.productIcon;prIcon=mxgraph.aws4.sagemaker;" parent="tK7-nYha1fmJZLgDKMoY-1" vertex="1">
          <mxGeometry x="1010" y="777" width="80" height="110" as="geometry" />
        </mxCell>
        <mxCell id="tK7-nYha1fmJZLgDKMoY-47" value="" style="endArrow=none;html=1;rounded=0;" parent="tK7-nYha1fmJZLgDKMoY-1" edge="1">
          <mxGeometry width="50" height="50" relative="1" as="geometry">
            <mxPoint x="280" y="740" as="sourcePoint" />
            <mxPoint x="1280" y="740" as="targetPoint" />
          </mxGeometry>
        </mxCell>
        <mxCell id="ndI1t_3S9Jpgb7oEwZW4-0" value="&lt;font style=&quot;font-size: 24px;&quot;&gt;&lt;u&gt;Conceptual Architecture w/ AWS Service Overlay: Data Scrubbing&lt;/u&gt;&lt;/font&gt;" style="text;html=1;strokeColor=none;fillColor=none;align=center;verticalAlign=middle;whiteSpace=wrap;rounded=0;fontSize=16;" parent="tK7-nYha1fmJZLgDKMoY-1" vertex="1">
          <mxGeometry x="348.5" y="10" width="781" height="30" as="geometry" />
        </mxCell>
      </root>
    </mxGraphModel>
  </diagram>
</mxfile>
